<?xml version="1.0" encoding="UTF-8" standalone="no"?>
<!-- Created with Inkscape (http://www.inkscape.org/) -->

<svg
   width="236.151"
   height="47.085865"
   viewBox="0 0 62.481619 12.458136"
   version="1.1"
   id="svg1"
   inkscape:version="1.4.2 (ebf0e940d0, 2025-05-08)"
   sodipodi:docname="juvalfri_nombre.svg"
   xmlns:inkscape="http://www.inkscape.org/namespaces/inkscape"
   xmlns:sodipodi="http://sodipodi.sourceforge.net/DTD/sodipodi-0.dtd"
   xmlns="http://www.w3.org/2000/svg"
   xmlns:svg="http://www.w3.org/2000/svg">
  <sodipodi:namedview
     id="namedview1"
     pagecolor="#ffffff"
     bordercolor="#000000"
     borderopacity="0.25"
     inkscape:showpageshadow="2"
     inkscape:pageopacity="0.0"
     inkscape:pagecheckerboard="0"
     inkscape:deskcolor="#d1d1d1"
     inkscape:document-units="mm"
     inkscape:zoom="2.9291246"
     inkscape:cx="118.12403"
     inkscape:cy="62.134605"
     inkscape:window-width="1920"
     inkscape:window-height="1011"
     inkscape:window-x="0"
     inkscape:window-y="0"
     inkscape:window-maximized="1"
     inkscape:current-layer="layer1" />
  <defs
     id="defs1" />
  <g
     inkscape:label="Layer 1"
     inkscape:groupmode="layer"
     id="layer1"
     transform="translate(-73.759186,-62.231283)">
    <g
       id="text1"
       style="font-weight:500;font-size:4.23333px;line-height:1;font-family:'Mona Sans';-inkscape-font-specification:'Mona Sans Medium';letter-spacing:0px;word-spacing:0.140229px;fill:#8b274b;fill-opacity:1;stroke:#ff0000;stroke-width:0.04;stroke-linecap:round"
       aria-label="Comercializadora de Servicios&#10;Integrales Juvalfri ">
      <path
         style="font-weight:600;font-size:4.49792px;font-family:'Exo 2';-inkscape-font-specification:'Exo 2 Semi-Bold';text-align:center;text-anchor:middle;fill:#8b274b;fill-opacity:1;stroke:none"
         d="m 75.0321,62.240272 q 0.211402,0 0.359834,0.01349 0.148431,0.009 0.274373,0.03149 0.125941,0.01799 0.260879,0.05397 l -0.04948,0.418307 q -0.139436,-0.009 -0.260879,-0.01349 -0.121444,-0.009 -0.26088,-0.01349 -0.134937,-0.0045 -0.32385,-0.0045 -0.260879,0 -0.409311,0.103453 -0.148431,0.103452 -0.211402,0.346339 -0.05847,0.242888 -0.05847,0.67019 0,0.427303 0.05847,0.670191 0.06297,0.242887 0.211402,0.346339 0.148432,0.103453 0.409311,0.103453 0.301361,0 0.503767,-0.009 0.206904,-0.01349 0.404813,-0.03598 l 0.04948,0.413809 q -0.202406,0.06297 -0.418307,0.08996 -0.2159,0.02699 -0.53975,0.02699 -0.467784,0 -0.746655,-0.152929 -0.278871,-0.157428 -0.404813,-0.508265 -0.121443,-0.350838 -0.121443,-0.944564 0,-0.593725 0.121443,-0.944563 0.125942,-0.350837 0.404813,-0.503767 0.278871,-0.157427 0.746655,-0.157427 z m 2.401889,0.895086 q 0.404813,0 0.643202,0.112448 0.242888,0.112448 0.34634,0.36883 0.10795,0.256381 0.10795,0.679185 0,0.422805 -0.10795,0.679186 -0.103452,0.251884 -0.34634,0.36883 -0.238389,0.112448 -0.643202,0.112448 -0.395817,0 -0.638705,-0.112448 -0.23839,-0.116946 -0.34634,-0.36883 -0.10795,-0.256381 -0.10795,-0.679186 0,-0.422804 0.10795,-0.679185 0.10795,-0.256382 0.34634,-0.36883 0.242888,-0.112448 0.638705,-0.112448 z m 0,0.413809 q -0.197909,0 -0.314855,0.06747 -0.112448,0.06297 -0.161925,0.224896 -0.04948,0.161925 -0.04948,0.454289 0,0.292365 0.04948,0.45429 0.04948,0.161926 0.161925,0.224896 0.116946,0.06297 0.314855,0.06297 0.202406,0 0.319352,-0.06297 0.116946,-0.06297 0.161925,-0.224896 0.04948,-0.161925 0.04948,-0.45429 0,-0.292364 -0.04948,-0.454289 -0.04498,-0.161926 -0.161925,-0.224896 -0.116946,-0.06747 -0.319352,-0.06747 z m 4.362982,-0.413809 q 0.292365,0 0.445294,0.157427 0.157427,0.15293 0.157427,0.449792 v 1.655235 h -0.53975 V 63.909 q -0.0045,-0.166423 -0.06747,-0.238389 -0.06297,-0.07646 -0.220398,-0.07646 -0.09446,0 -0.184415,0.03148 -0.08546,0.02699 -0.19341,0.08996 -0.10795,0.06297 -0.26088,0.166423 l -0.03149,-0.328348 q 0.229394,-0.211403 0.440796,-0.314855 0.2159,-0.103452 0.45429,-0.103452 z m -2.316429,0.05398 0.05397,0.4318 0.05398,0.06297 v 1.713708 h -0.544248 v -2.208479 z m 0.90858,-0.05398 q 0.287867,0 0.440796,0.152929 0.152929,0.15293 0.152929,0.45429 v 1.655235 H 80.461089 V 63.909 q 0,-0.175419 -0.07197,-0.242887 -0.07197,-0.07197 -0.2159,-0.07197 -0.08996,0 -0.179917,0.02699 -0.08996,0.02699 -0.197908,0.08996 -0.107951,0.06297 -0.269876,0.170921 l -0.03149,-0.328348 q 0.224896,-0.211403 0.440796,-0.314855 0.2159,-0.103452 0.45429,-0.103452 z m 3.593837,0 q 0.535252,0 0.769144,0.188913 0.233892,0.184414 0.23839,0.548746 0.0045,0.301361 -0.143933,0.458788 -0.143934,0.152929 -0.481278,0.152929 H 83.105864 V 64.14739 h 1.110987 q 0.152929,0 0.19341,-0.08096 0.04498,-0.08096 0.04498,-0.197909 -0.0045,-0.184415 -0.10795,-0.256381 -0.09895,-0.07197 -0.341842,-0.07197 -0.211402,0 -0.328348,0.05847 -0.116946,0.05847 -0.166423,0.211402 -0.04498,0.152929 -0.04498,0.440796 0,0.305859 0.05847,0.472282 0.05847,0.166423 0.193411,0.229394 0.134937,0.05847 0.359833,0.05847 0.166423,0 0.382323,-0.01349 0.220398,-0.01349 0.422805,-0.03598 l 0.05398,0.346339 q -0.121444,0.04948 -0.278871,0.08096 -0.157427,0.03148 -0.328348,0.04498 -0.166423,0.01799 -0.314855,0.01799 -0.404812,0 -0.652198,-0.116946 -0.242888,-0.121444 -0.355336,-0.377825 -0.10795,-0.256382 -0.10795,-0.661195 0,-0.436298 0.10795,-0.688181 0.112448,-0.256382 0.350838,-0.364332 0.242888,-0.10795 0.625211,-0.10795 z m 1.920612,0.05398 0.07197,0.4318 0.04948,0.06297 v 1.713708 h -0.544249 v -2.208479 z m 1.079501,-0.05398 -0.05398,0.503767 h -0.157428 q -0.175418,0 -0.355335,0.05847 -0.179917,0.05847 -0.449792,0.175419 l -0.03598,-0.319352 q 0.233892,-0.197909 0.47678,-0.305859 0.242888,-0.112448 0.467784,-0.112448 z m 1.3116,0 q 0.112448,0 0.247385,0.009 0.134938,0.009 0.274373,0.03598 0.139436,0.02699 0.251884,0.07646 l -0.06297,0.341842 q -0.166423,-0.009 -0.332846,-0.01349 -0.161925,-0.0045 -0.283369,-0.0045 -0.229394,0 -0.364332,0.06297 -0.130439,0.05847 -0.188912,0.2159 -0.05847,0.15293 -0.05847,0.431801 0,0.278871 0.05847,0.436298 0.05847,0.152929 0.188912,0.2159 0.134938,0.06297 0.364332,0.06297 0.06747,0 0.175419,-0.0045 0.112448,-0.0045 0.238389,-0.01349 0.13044,-0.009 0.251884,-0.02249 l 0.05397,0.350837 q -0.175419,0.07197 -0.391319,0.103452 -0.2159,0.03149 -0.427302,0.03149 -0.395817,0 -0.634207,-0.112448 -0.23839,-0.112448 -0.34634,-0.364332 -0.103452,-0.256381 -0.103452,-0.683683 0,-0.427303 0.10795,-0.679186 0.10795,-0.256382 0.34634,-0.364332 0.23839,-0.112448 0.634207,-0.112448 z m 1.81716,0.05398 v 2.208479 H 89.572081 V 63.189333 Z M 89.9634,62.231276 q 0.161925,0 0.161925,0.161925 v 0.251884 q 0,0.161925 -0.161925,0.161925 h -0.242887 q -0.161925,0 -0.161925,-0.161925 v -0.251884 q 0,-0.161925 0.161925,-0.161925 z m 1.889126,0.904082 q 0.265378,0 0.445294,0.07197 0.184415,0.06747 0.278871,0.233892 0.09446,0.166423 0.09446,0.458788 v 1.497807 H 92.23935 l -0.07646,-0.47678 -0.04048,-0.06297 v -0.962554 q 0,-0.175419 -0.08096,-0.251884 -0.08096,-0.08096 -0.310357,-0.08096 -0.170921,0 -0.4318,0.01349 -0.256381,0.01349 -0.517261,0.03598 l -0.04948,-0.373328 q 0.157427,-0.03149 0.355336,-0.05398 0.197908,-0.02249 0.400315,-0.03598 0.202406,-0.01349 0.364331,-0.01349 z m 0.58473,0.904082 -0.0045,0.337344 h -1.012032 q -0.134938,0.0045 -0.193411,0.07197 -0.05847,0.06747 -0.05847,0.184414 v 0.121444 q 0,0.134938 0.07197,0.206905 0.07197,0.06747 0.224896,0.06747 0.121444,0 0.269875,-0.04948 0.148432,-0.04948 0.292365,-0.143933 0.148432,-0.09446 0.265377,-0.224896 v 0.283369 q -0.04498,0.06747 -0.130439,0.161925 -0.08546,0.08996 -0.211402,0.179917 -0.121444,0.08996 -0.283369,0.148431 -0.157428,0.05847 -0.350838,0.05847 -0.197909,0 -0.355336,-0.06747 -0.157427,-0.07197 -0.247385,-0.206904 -0.08996,-0.139436 -0.08996,-0.341842 v -0.233892 q 0,-0.260879 0.170921,-0.404813 0.175419,-0.148431 0.47678,-0.148431 z m 1.376367,-1.790172 -0.0045,2.482852 q 0,0.125941 0.07197,0.19341 0.07197,0.06297 0.206905,0.06297 h 0.19341 l 0.06297,0.382323 q -0.04948,0.02249 -0.139435,0.04048 -0.08546,0.01799 -0.179917,0.02249 -0.08996,0.009 -0.157427,0.009 -0.274373,0 -0.436299,-0.148431 -0.161925,-0.148432 -0.161925,-0.427303 V 62.24927 Z m 1.425843,0.940065 v 2.208479 h -0.539751 v -2.208479 z m -0.148432,-0.958057 q 0.161926,0 0.161926,0.161925 v 0.251884 q 0,0.161925 -0.161926,0.161925 h -0.242887 q -0.161925,0 -0.161925,-0.161925 v -0.251884 q 0,-0.161925 0.161925,-0.161925 z m 1.974587,1.353874 0.620713,0.0045 -1.308895,1.416845 -0.620713,-0.0045 z m 0.638704,1.416845 v 0.395817 h -1.947599 v -0.395817 z m -0.01799,-1.812662 v 0.400315 h -1.911616 v -0.400315 z m 1.628244,-0.05398 q 0.265377,0 0.445294,0.07197 0.184414,0.06747 0.278867,0.233892 0.0945,0.166423 0.0945,0.458788 v 1.497807 h -0.4318 L 99.62498,64.92103 99.5845,64.85806 v -0.962554 q 0,-0.175419 -0.08096,-0.251884 -0.08096,-0.08096 -0.310356,-0.08096 -0.170921,0 -0.4318,0.01349 -0.256382,0.01349 -0.517261,0.03598 l -0.04948,-0.373328 q 0.157427,-0.03149 0.355335,-0.05398 0.197909,-0.02249 0.400315,-0.03598 0.202407,-0.01349 0.364332,-0.01349 z m 0.584729,0.904082 -0.0045,0.337344 h -1.012032 q -0.134937,0.0045 -0.19341,0.07197 -0.05847,0.06747 -0.05847,0.184414 v 0.121444 q 0,0.134938 0.07197,0.206905 0.07197,0.06747 0.224896,0.06747 0.121443,0 0.269875,-0.04948 0.148431,-0.04948 0.292365,-0.143933 0.148431,-0.09446 0.265377,-0.224896 v 0.283369 q -0.04498,0.06747 -0.13044,0.161925 -0.08546,0.08996 -0.211402,0.179917 -0.121444,0.08996 -0.283369,0.148431 -0.157427,0.05847 -0.350838,0.05847 -0.197908,0 -0.355336,-0.06747 -0.157427,-0.07197 -0.247385,-0.206904 -0.08996,-0.139436 -0.08996,-0.341842 v -0.233892 q 0,-0.260879 0.170921,-0.404813 0.175419,-0.148431 0.47678,-0.148431 z m 1.574272,-0.904082 q 0.2249,0 0.4408,0.06297 0.2159,0.05847 0.39132,0.197908 l -0.036,0.274374 q -0.17541,-0.04948 -0.31485,-0.08546 -0.13944,-0.03598 -0.31036,-0.03598 -0.16192,0 -0.26088,0.05847 -0.0944,0.05397 -0.14393,0.211402 -0.045,0.157427 -0.045,0.458788 0,0.287867 0.045,0.445294 0.045,0.152929 0.13944,0.2159 0.0944,0.05847 0.24738,0.05847 0.12145,0 0.2159,-0.02699 0.0945,-0.03149 0.19341,-0.08996 0.099,-0.06297 0.2294,-0.157427 l 0.045,0.305858 q -0.15293,0.175419 -0.37783,0.301361 -0.2204,0.121444 -0.51276,0.121444 -0.42281,0 -0.60272,-0.296863 -0.17992,-0.30136 -0.17992,-0.872596 0,-0.436299 0.09,-0.683684 0.0945,-0.251884 0.27887,-0.355336 0.18891,-0.10795 0.46778,-0.10795 z m 1.27741,-0.88609 v 3.148544 h -0.4273 l -0.0585,-0.395817 -0.0585,-0.04498 v -1.475318 l 0.027,-0.06297 q -0.018,-0.13044 -0.0225,-0.260879 -0.005,-0.134938 -0.005,-0.274373 v -0.634207 z m 1.61476,0.88609 q 0.40481,0 0.6432,0.112448 0.24289,0.112448 0.34634,0.36883 0.10795,0.256381 0.10795,0.679185 0,0.422805 -0.10795,0.679186 -0.10345,0.251884 -0.34634,0.36883 -0.23839,0.112448 -0.6432,0.112448 -0.39582,0 -0.63871,-0.112448 -0.23839,-0.116946 -0.34634,-0.36883 -0.10795,-0.256381 -0.10795,-0.679186 0,-0.422804 0.10795,-0.679185 0.10795,-0.256382 0.34634,-0.36883 0.24289,-0.112448 0.63871,-0.112448 z m 0,0.413809 q -0.19791,0 -0.31486,0.06747 -0.11245,0.06297 -0.16192,0.224896 -0.0495,0.161925 -0.0495,0.454289 0,0.292365 0.0495,0.45429 0.0495,0.161926 0.16192,0.224896 0.11695,0.06297 0.31486,0.06297 0.2024,0 0.31935,-0.06297 0.11694,-0.06297 0.16192,-0.224896 0.0495,-0.161925 0.0495,-0.45429 0,-0.292364 -0.0495,-0.454289 -0.045,-0.161926 -0.16192,-0.224896 -0.11695,-0.06747 -0.31935,-0.06747 z m 2.03305,-0.359834 0.072,0.4318 0.0495,0.06297 v 1.713708 h -0.5443 v -2.208479 z m 1.0795,-0.05398 -0.054,0.503767 h -0.15743 q -0.17542,0 -0.35533,0.05847 -0.17992,0.05847 -0.4498,0.175419 l -0.036,-0.319352 q 0.23389,-0.197909 0.47678,-0.305859 0.24289,-0.112448 0.46778,-0.112448 z m 1.47202,0 q 0.26538,0 0.4453,0.07197 0.18441,0.06747 0.27887,0.233892 0.0945,0.166423 0.0945,0.458788 v 1.497807 h -0.43181 l -0.0765,-0.47678 -0.0405,-0.06297 v -0.962554 q 0,-0.175419 -0.081,-0.251884 -0.081,-0.08096 -0.31036,-0.08096 -0.17092,0 -0.4318,0.01349 -0.25638,0.01349 -0.51726,0.03598 l -0.0495,-0.373328 q 0.15743,-0.03149 0.35534,-0.05398 0.19791,-0.02249 0.40031,-0.03598 0.20241,-0.01349 0.36433,-0.01349 z m 0.58473,0.904082 -0.004,0.337344 h -1.01204 q -0.13493,0.0045 -0.19341,0.07197 -0.0585,0.06747 -0.0585,0.184414 v 0.121444 q 0,0.134938 0.072,0.206905 0.072,0.06747 0.22489,0.06747 0.12145,0 0.26988,-0.04948 0.14843,-0.04948 0.29236,-0.143933 0.14843,-0.09446 0.26538,-0.224896 v 0.283369 q -0.045,0.06747 -0.13044,0.161925 -0.0855,0.08996 -0.2114,0.179917 -0.12145,0.08996 -0.28337,0.148431 -0.15743,0.05847 -0.35084,0.05847 -0.19791,0 -0.35533,-0.06747 -0.15743,-0.07197 -0.24739,-0.206904 -0.09,-0.139436 -0.09,-0.341842 v -0.233892 q 0,-0.260879 0.17092,-0.404813 0.17542,-0.148431 0.47678,-0.148431 z m 2.69955,-0.904082 q 0.2249,0 0.4408,0.06297 0.2159,0.05847 0.39132,0.197908 l -0.036,0.274374 q -0.17542,-0.04948 -0.31485,-0.08546 -0.13944,-0.03598 -0.31036,-0.03598 -0.16192,0 -0.26088,0.05847 -0.0944,0.05397 -0.14393,0.211402 -0.045,0.157427 -0.045,0.458788 0,0.287867 0.045,0.445294 0.045,0.152929 0.13943,0.2159 0.0945,0.05847 0.24739,0.05847 0.12144,0 0.2159,-0.02699 0.0945,-0.03149 0.19341,-0.08996 0.099,-0.06297 0.2294,-0.157427 l 0.045,0.305858 q -0.15292,0.175419 -0.37782,0.301361 -0.2204,0.121444 -0.51276,0.121444 -0.42281,0 -0.60273,-0.296863 -0.17991,-0.30136 -0.17991,-0.872596 0,-0.436299 0.09,-0.683684 0.0945,-0.251884 0.27887,-0.355336 0.18891,-0.10795 0.46778,-0.10795 z m 1.27741,-0.88609 v 3.148544 h -0.4273 l -0.0585,-0.395817 -0.0585,-0.04498 v -1.475318 l 0.027,-0.06297 q -0.018,-0.13044 -0.0225,-0.260879 -0.005,-0.134938 -0.005,-0.274373 v -0.634207 z m 1.60126,0.88609 q 0.53526,0 0.76915,0.188913 0.23389,0.184414 0.23839,0.548746 0.004,0.301361 -0.14394,0.458788 -0.14393,0.152929 -0.48127,0.152929 h -1.25942 V 64.14739 h 1.11098 q 0.15293,0 0.19342,-0.08096 0.045,-0.08096 0.045,-0.197909 -0.004,-0.184415 -0.10795,-0.256381 -0.099,-0.07197 -0.34184,-0.07197 -0.2114,0 -0.32835,0.05847 -0.11694,0.05847 -0.16642,0.211402 -0.045,0.152929 -0.045,0.440796 0,0.305859 0.0585,0.472282 0.0585,0.166423 0.19342,0.229394 0.13493,0.05847 0.35983,0.05847 0.16642,0 0.38232,-0.01349 0.2204,-0.01349 0.42281,-0.03598 l 0.054,0.346339 q -0.12144,0.04948 -0.27887,0.08096 -0.15743,0.03148 -0.32835,0.04498 -0.16642,0.01799 -0.31485,0.01799 -0.40481,0 -0.6522,-0.116946 -0.24289,-0.121444 -0.35534,-0.377825 -0.10795,-0.256382 -0.10795,-0.661195 0,-0.436298 0.10795,-0.688181 0.11245,-0.256382 0.35084,-0.364332 0.24289,-0.10795 0.62521,-0.10795 z m 3.61712,-0.899584 q 0.2294,0.0045 0.48128,0.02699 0.25638,0.02249 0.49927,0.08546 l -0.036,0.382323 q -0.19341,-0.0045 -0.4498,-0.009 -0.25188,-0.009 -0.48577,-0.009 -0.14394,0 -0.24739,0.009 -0.099,0.009 -0.16192,0.04498 -0.063,0.03598 -0.0945,0.112448 -0.027,0.07197 -0.027,0.202406 0,0.202406 0.081,0.287867 0.0855,0.08546 0.27437,0.134938 l 0.61172,0.179916 q 0.36883,0.112448 0.50826,0.328349 0.13944,0.211402 0.13944,0.566737 0,0.265378 -0.063,0.436299 -0.063,0.170921 -0.19341,0.265377 -0.13044,0.09446 -0.34185,0.134938 -0.2114,0.04048 -0.50826,0.04048 -0.15293,0 -0.42281,-0.01799 -0.26537,-0.01799 -0.60722,-0.08996 l 0.036,-0.404813 q 0.26538,0.009 0.44529,0.01799 0.17992,0.0045 0.31036,0.0045 0.13044,0 0.24289,0 0.2069,0 0.32385,-0.02699 0.11694,-0.02699 0.16192,-0.112448 0.0495,-0.08546 0.0495,-0.247386 0,-0.139435 -0.036,-0.2159 -0.0315,-0.08096 -0.10795,-0.125941 -0.0765,-0.04498 -0.19791,-0.07646 l -0.63421,-0.193411 q -0.35084,-0.10795 -0.49477,-0.319352 -0.13944,-0.211402 -0.13944,-0.566738 0,-0.265377 0.063,-0.4318 0.063,-0.170921 0.19342,-0.256382 0.13043,-0.08996 0.33284,-0.121444 0.20691,-0.03598 0.49477,-0.03598 z m 2.57731,0.899584 q 0.53526,0 0.76915,0.188913 0.23389,0.184414 0.23839,0.548746 0.004,0.301361 -0.14394,0.458788 -0.14393,0.152929 -0.48127,0.152929 h -1.25942 V 64.14739 h 1.11099 q 0.15293,0 0.19341,-0.08096 0.045,-0.08096 0.045,-0.197909 -0.004,-0.184415 -0.10795,-0.256381 -0.099,-0.07197 -0.34185,-0.07197 -0.2114,0 -0.32834,0.05847 -0.11695,0.05847 -0.16643,0.211402 -0.045,0.152929 -0.045,0.440796 0,0.305859 0.0585,0.472282 0.0585,0.166423 0.19341,0.229394 0.13493,0.05847 0.35983,0.05847 0.16642,0 0.38232,-0.01349 0.2204,-0.01349 0.42281,-0.03598 l 0.054,0.346339 q -0.12144,0.04948 -0.27887,0.08096 -0.15743,0.03148 -0.32835,0.04498 -0.16642,0.01799 -0.31485,0.01799 -0.40481,0 -0.6522,-0.116946 -0.24289,-0.121444 -0.35533,-0.377825 -0.10795,-0.256382 -0.10795,-0.661195 0,-0.436298 0.10795,-0.688181 0.11244,-0.256382 0.35083,-0.364332 0.24289,-0.10795 0.62521,-0.10795 z m 1.92062,0.05398 0.072,0.4318 0.0495,0.06297 v 1.713708 h -0.54425 v -2.208479 z m 1.0795,-0.05398 -0.054,0.503767 h -0.15742 q -0.17542,0 -0.35534,0.05847 -0.17992,0.05847 -0.44979,0.175419 l -0.036,-0.319352 q 0.2339,-0.197909 0.47678,-0.305859 0.24289,-0.112448 0.46779,-0.112448 z m 2.48285,0.05398 -0.76015,2.078039 q -0.0225,0.05847 -0.072,0.09446 -0.045,0.03598 -0.11245,0.03598 h -0.47678 q -0.063,0 -0.11245,-0.03598 -0.0495,-0.03598 -0.072,-0.09446 l -0.76015,-2.078039 h 0.58024 l 0.46328,1.44833 q 0.0315,0.09896 0.0585,0.202407 0.027,0.09895 0.0495,0.19341 h 0.0585 q 0.0315,-0.09895 0.0585,-0.197908 0.0315,-0.09895 0.0585,-0.197909 l 0.46329,-1.44833 z m 0.92208,0 v 2.208479 H 127.173 v -2.208479 z m -0.14844,-0.958057 q 0.16193,0 0.16193,0.161925 v 0.251884 q 0,0.161925 -0.16193,0.161925 h -0.24288 q -0.16193,0 -0.16193,-0.161925 v -0.251884 q 0,-0.161925 0.16193,-0.161925 z m 1.76769,0.904082 q 0.11244,0 0.24738,0.009 0.13494,0.009 0.27438,0.03598 0.13943,0.02699 0.25188,0.07646 l -0.063,0.341842 q -0.16643,-0.009 -0.33285,-0.01349 -0.16192,-0.0045 -0.28337,-0.0045 -0.22939,0 -0.36433,0.06297 -0.13044,0.05847 -0.18891,0.2159 -0.0585,0.15293 -0.0585,0.431801 0,0.278871 0.0585,0.436298 0.0585,0.152929 0.18891,0.2159 0.13494,0.06297 0.36433,0.06297 0.0675,0 0.17542,-0.0045 0.11245,-0.0045 0.23839,-0.01349 0.13044,-0.009 0.25188,-0.02249 l 0.054,0.350837 q -0.17542,0.07197 -0.39132,0.103452 -0.2159,0.03149 -0.4273,0.03149 -0.39582,0 -0.63421,-0.112448 -0.23839,-0.112448 -0.34634,-0.364332 -0.10345,-0.256381 -0.10345,-0.683683 0,-0.427303 0.10795,-0.679186 0.10795,-0.256382 0.34634,-0.364332 0.23839,-0.112448 0.63421,-0.112448 z m 1.81715,0.05398 v 2.208479 h -0.53975 v -2.208479 z m -0.14843,-0.958057 q 0.16193,0 0.16193,0.161925 v 0.251884 q 0,0.161925 -0.16193,0.161925 h -0.24288 q -0.16193,0 -0.16193,-0.161925 v -0.251884 q 0,-0.161925 0.16193,-0.161925 z m 1.77669,0.904082 q 0.40481,0 0.6432,0.112448 0.24289,0.112448 0.34634,0.36883 0.10795,0.256381 0.10795,0.679185 0,0.422805 -0.10795,0.679186 -0.10345,0.251884 -0.34634,0.36883 -0.23839,0.112448 -0.6432,0.112448 -0.39582,0 -0.63871,-0.112448 -0.23839,-0.116946 -0.34634,-0.36883 -0.10795,-0.256381 -0.10795,-0.679186 0,-0.422804 0.10795,-0.679185 0.10795,-0.256382 0.34634,-0.36883 0.24289,-0.112448 0.63871,-0.112448 z m 0,0.413809 q -0.19791,0 -0.31486,0.06747 -0.11245,0.06297 -0.16192,0.224896 -0.0495,0.161925 -0.0495,0.454289 0,0.292365 0.0495,0.45429 0.0495,0.161926 0.16192,0.224896 0.11695,0.06297 0.31486,0.06297 0.2024,0 0.31935,-0.06297 0.11694,-0.06297 0.16192,-0.224896 0.0495,-0.161925 0.0495,-0.45429 0,-0.292364 -0.0495,-0.454289 -0.045,-0.161926 -0.16192,-0.224896 -0.11695,-0.06747 -0.31935,-0.06747 z m 2.40638,-0.413809 q 0.15293,0 0.32835,0.009 0.17991,0.009 0.35084,0.02699 0.17092,0.01349 0.30585,0.04048 l -0.036,0.355335 q -0.2159,-0.0045 -0.4318,-0.009 -0.2114,-0.009 -0.41831,-0.009 -0.18441,0 -0.29236,0.009 -0.10345,0.009 -0.14843,0.05398 -0.0405,0.04498 -0.0405,0.152929 0,0.13044 0.072,0.175419 0.072,0.04048 0.2339,0.08096 l 0.60272,0.139436 q 0.26987,0.06747 0.40031,0.206904 0.13044,0.134938 0.13044,0.418307 0,0.274373 -0.10345,0.418306 -0.099,0.139436 -0.31935,0.193411 -0.2159,0.04948 -0.55325,0.04948 -0.13044,0 -0.38682,-0.01349 -0.25638,-0.009 -0.56224,-0.05847 l 0.036,-0.355335 q 0.09,0 0.21141,0.0045 0.12594,0.0045 0.26537,0.0045 0.14394,0 0.29237,0 0.23839,0 0.36433,-0.01349 0.13044,-0.01799 0.17992,-0.06747 0.0495,-0.05397 0.0495,-0.152929 0,-0.125942 -0.0855,-0.166423 -0.081,-0.04498 -0.24288,-0.08546 l -0.58923,-0.143933 q -0.20241,-0.05398 -0.31486,-0.134938 -0.11244,-0.08546 -0.16192,-0.206904 -0.0495,-0.125942 -0.0495,-0.305859 0,-0.242888 0.09,-0.377825 0.0945,-0.134938 0.29237,-0.188913 0.2024,-0.05398 0.53075,-0.04948 z"
         id="path5" />
      <path
         style="font-weight:600;font-size:4.49792px;font-family:'Exo 2';-inkscape-font-specification:'Exo 2 Semi-Bold';text-align:center;text-anchor:middle;fill:#8b274b;fill-opacity:1;stroke:none"
         d="m 86.955045,66.867793 v 3.103564 h -0.56224 v -3.103564 z m 2.105023,0.841111 q 0.616215,0 0.616215,0.607219 v 1.655234 h -0.544248 v -1.488811 q 0,-0.179917 -0.06297,-0.247386 -0.06297,-0.06747 -0.211402,-0.06747 -0.166423,0 -0.341842,0.07646 -0.175419,0.07197 -0.422805,0.211402 l -0.02249,-0.328348 q 0.242888,-0.202406 0.494771,-0.310356 0.251884,-0.10795 0.494771,-0.10795 z m -1.007534,0.05397 0.05398,0.4318 0.04498,0.06297 v 1.713707 H 87.60724 v -2.208478 z m 2.950638,-0.629709 v 2.172495 q 0,0.139436 0.05847,0.197909 0.06297,0.05847 0.211402,0.05847 h 0.305858 l 0.05847,0.382323 q -0.07646,0.02249 -0.184414,0.04048 -0.10795,0.01799 -0.211403,0.02249 -0.103452,0.009 -0.175418,0.009 -0.287867,0 -0.449792,-0.15293 -0.157428,-0.157427 -0.157428,-0.449792 v -2.28044 z m 0.656696,0.629709 v 0.377825 h -1.592264 v -0.355336 l 0.431801,-0.02249 z m 1.385357,-0.05397 q 0.535252,0 0.769144,0.188912 0.233892,0.184415 0.23839,0.548747 0.0045,0.30136 -0.143934,0.458787 -0.143933,0.15293 -0.481277,0.15293 H 92.16813 v -0.337344 h 1.110986 q 0.15293,0 0.193411,-0.08096 0.04498,-0.08096 0.04498,-0.197908 -0.0045,-0.184415 -0.10795,-0.256382 -0.09895,-0.07197 -0.341842,-0.07197 -0.211402,0 -0.328348,0.05847 -0.116946,0.05847 -0.166423,0.211403 -0.04498,0.152929 -0.04498,0.440796 0,0.305858 0.05847,0.472281 0.05847,0.166423 0.19341,0.229394 0.134938,0.05847 0.359834,0.05847 0.166423,0 0.382323,-0.01349 0.220398,-0.01349 0.422805,-0.03598 l 0.05397,0.34634 q -0.121444,0.04948 -0.278871,0.08096 -0.157428,0.03149 -0.328349,0.04498 -0.166423,0.01799 -0.314854,0.01799 -0.404813,0 -0.652198,-0.116945 -0.242888,-0.121444 -0.355336,-0.377826 -0.10795,-0.256381 -0.10795,-0.661194 0,-0.436298 0.10795,-0.688182 0.112448,-0.256381 0.350838,-0.364331 0.242887,-0.10795 0.625211,-0.10795 z m 2.433374,0 q 0.373327,0 0.589227,0.07197 0.220399,0.06747 0.314855,0.224896 0.09446,0.15293 0.09446,0.404813 0,0.242888 -0.09446,0.400315 -0.09446,0.152929 -0.314855,0.224896 -0.220398,0.07197 -0.593725,0.07197 -0.373327,0 -0.593725,-0.07197 -0.215901,-0.07197 -0.314855,-0.224896 -0.09446,-0.152929 -0.09446,-0.400315 0,-0.251883 0.09446,-0.404813 0.09895,-0.157427 0.319352,-0.224896 0.220399,-0.07197 0.593726,-0.07197 z m -0.0045,0.355335 q -0.283369,0 -0.391319,0.07646 -0.10795,0.07646 -0.10795,0.269875 0,0.184415 0.10795,0.265377 0.10795,0.07646 0.391319,0.07646 0.283369,0 0.386821,-0.07646 0.10795,-0.08096 0.10795,-0.265377 0,-0.19341 -0.10795,-0.269875 -0.103452,-0.07646 -0.386821,-0.07646 z m 1.259418,-0.30136 -0.03149,0.251883 -0.575734,0.06297 -0.161925,-0.314854 z m -1.902621,1.20994 0.278871,0.04048 q -0.06747,0.05397 -0.09446,0.139436 -0.02249,0.08096 0.01349,0.157427 0.04048,0.07197 0.170921,0.08996 l 0.818621,0.10795 q 0.332846,0.04048 0.467784,0.197908 0.134938,0.152929 0.134938,0.445294 0,0.274373 -0.10795,0.427303 -0.107951,0.152929 -0.355336,0.211402 -0.242888,0.06297 -0.656696,0.06297 -0.328349,0 -0.544249,-0.03598 -0.2159,-0.03148 -0.34634,-0.112448 -0.125941,-0.07646 -0.179916,-0.202406 -0.05397,-0.121444 -0.05397,-0.305859 0,-0.143933 0.04498,-0.242887 0.04948,-0.09896 0.157427,-0.175419 0.10795,-0.08096 0.292365,-0.148432 l 0.305858,-0.130439 0.211403,0.07646 -0.197909,0.139436 q -0.103452,0.07647 -0.170921,0.139435 -0.06297,0.05847 -0.09446,0.116946 -0.02699,0.06297 -0.02699,0.157428 0,0.125941 0.04948,0.19341 0.05397,0.06747 0.184415,0.08996 0.13044,0.02699 0.364332,0.02699 0.238389,0 0.368829,-0.02699 0.13044,-0.02249 0.179917,-0.08996 0.05397,-0.06297 0.05397,-0.184415 0,-0.09895 -0.03149,-0.148431 -0.03149,-0.04498 -0.112448,-0.07197 -0.08096,-0.02699 -0.224896,-0.04498 l -0.737658,-0.08996 q -0.157428,-0.01799 -0.251884,-0.08996 -0.08996,-0.07646 -0.125942,-0.179916 -0.03598,-0.107951 -0.02249,-0.211403 0.01799,-0.10795 0.07646,-0.197908 0.06297,-0.08996 0.161925,-0.13044 z m 2.703247,-1.20994 0.07197,0.4318 0.04948,0.06297 v 1.713707 H 97.11134 v -2.208478 z m 1.079501,-0.05397 -0.05398,0.503767 h -0.157428 q -0.175418,0 -0.355335,0.05847 -0.179917,0.05847 -0.449792,0.175419 l -0.03598,-0.319353 q 0.233892,-0.197908 0.47678,-0.305858 0.242888,-0.112448 0.467784,-0.112448 z m 1.472026,0 q 0.26537,0 0.44529,0.07197 0.18441,0.06747 0.27887,0.233892 0.0945,0.166423 0.0945,0.458788 v 1.497807 h -0.4318 l -0.0765,-0.476779 -0.0405,-0.06297 v -0.962555 q 0,-0.175419 -0.081,-0.251883 -0.081,-0.08096 -0.310361,-0.08096 -0.170921,0 -0.4318,0.01349 -0.256381,0.01349 -0.517261,0.03598 l -0.04948,-0.373327 q 0.157427,-0.03149 0.355336,-0.05397 0.197908,-0.02249 0.400315,-0.03598 0.202406,-0.01349 0.364331,-0.01349 z m 0.58472,0.904082 -0.004,0.337344 h -1.012037 q -0.134938,0.0045 -0.193411,0.07197 -0.05847,0.06747 -0.05847,0.184415 v 0.121444 q 0,0.134937 0.07197,0.206904 0.07197,0.06747 0.224896,0.06747 0.121444,0 0.269875,-0.04948 0.148427,-0.04948 0.292357,-0.143934 0.14844,-0.09446 0.26538,-0.224896 v 0.283369 q -0.045,0.06747 -0.13044,0.161925 -0.0855,0.08996 -0.2114,0.179917 -0.12144,0.08996 -0.283366,0.148432 -0.157427,0.05847 -0.350837,0.05847 -0.197909,0 -0.355336,-0.06747 -0.157427,-0.07197 -0.247386,-0.206905 -0.08996,-0.139435 -0.08996,-0.341841 V 69.16623 q 0,-0.26088 0.170921,-0.404813 0.175419,-0.148431 0.476779,-0.148431 z m 1.37637,-1.790173 -0.005,2.482852 q 0,0.125942 0.072,0.193411 0.072,0.06297 0.2069,0.06297 h 0.19342 l 0.063,0.382323 q -0.0495,0.02249 -0.13944,0.04048 -0.0855,0.01799 -0.17992,0.02249 -0.09,0.009 -0.15742,0.009 -0.27438,0 -0.4363,-0.148432 -0.16193,-0.148431 -0.16193,-0.427302 v -2.61779 z m 1.85315,0.886091 q 0.53525,0 0.76914,0.188912 0.23389,0.184415 0.23839,0.548747 0.005,0.30136 -0.14393,0.458787 -0.14393,0.15293 -0.48128,0.15293 h -1.25942 v -0.337344 h 1.11099 q 0.15293,0 0.19341,-0.08096 0.045,-0.08096 0.045,-0.197908 -0.005,-0.184415 -0.10795,-0.256382 -0.099,-0.07197 -0.34184,-0.07197 -0.2114,0 -0.32835,0.05847 -0.11695,0.05847 -0.16642,0.211403 -0.045,0.152929 -0.045,0.440796 0,0.305858 0.0585,0.472281 0.0585,0.166423 0.19341,0.229394 0.13494,0.05847 0.35983,0.05847 0.16643,0 0.38233,-0.01349 0.2204,-0.01349 0.4228,-0.03598 l 0.054,0.34634 q -0.12145,0.04948 -0.27887,0.08096 -0.15743,0.03149 -0.32835,0.04498 -0.16643,0.01799 -0.31486,0.01799 -0.40481,0 -0.6522,-0.116945 -0.24288,-0.121444 -0.35533,-0.377826 -0.10795,-0.256381 -0.10795,-0.661194 0,-0.436298 0.10795,-0.688182 0.11245,-0.256381 0.35084,-0.364331 0.24288,-0.10795 0.62521,-0.10795 z m 2.29394,0 q 0.15293,0 0.32834,0.009 0.17992,0.009 0.35084,0.02699 0.17092,0.01349 0.30586,0.04048 l -0.036,0.355336 q -0.2159,-0.0045 -0.4318,-0.009 -0.21141,-0.009 -0.41831,-0.009 -0.18441,0 -0.29236,0.009 -0.10346,0.009 -0.14844,0.05397 -0.0405,0.04498 -0.0405,0.152929 0,0.13044 0.072,0.175419 0.072,0.04048 0.23389,0.08096 l 0.60272,0.139435 q 0.26988,0.06747 0.40032,0.206905 0.13044,0.134937 0.13044,0.418306 0,0.274373 -0.10345,0.418307 -0.099,0.139435 -0.31936,0.19341 -0.2159,0.04948 -0.55324,0.04948 -0.13044,0 -0.38682,-0.01349 -0.25638,-0.009 -0.56224,-0.05847 l 0.036,-0.355336 q 0.09,0 0.2114,0.0045 0.12595,0.0045 0.26538,0.0045 0.14393,0 0.29237,0 0.23839,0 0.36433,-0.01349 0.13044,-0.01799 0.17991,-0.06747 0.0495,-0.05397 0.0495,-0.152929 0,-0.125942 -0.0855,-0.166423 -0.081,-0.04498 -0.24289,-0.08546 l -0.58922,-0.143934 q -0.20241,-0.05397 -0.31486,-0.134937 -0.11245,-0.08546 -0.16192,-0.206905 -0.0495,-0.125942 -0.0495,-0.305858 0,-0.242888 0.09,-0.377826 0.0945,-0.134937 0.29236,-0.188912 0.20241,-0.05397 0.53076,-0.04948 z m 3.55545,-0.841111 v 2.473856 q 0,0.332846 -0.17542,0.503767 -0.17092,0.170921 -0.49027,0.170921 -0.0675,0 -0.16643,-0.009 -0.099,-0.0045 -0.18891,-0.02249 -0.09,-0.01799 -0.14843,-0.04048 l 0.063,-0.377825 h 0.2204 q 0.32835,0 0.32835,-0.287867 v -2.410885 z m 1.17395,0.895086 v 1.493309 q -0.004,0.166423 0.063,0.23839 0.072,0.07197 0.2294,0.07197 0.15742,0 0.31485,-0.06747 0.15743,-0.06747 0.38232,-0.202407 l 0.054,0.323851 q -0.25188,0.202406 -0.48578,0.305858 -0.23389,0.103452 -0.48577,0.103452 -0.61622,0 -0.61622,-0.607219 v -1.659732 z m 1.47982,0 v 2.208478 h -0.4318 l -0.0585,-0.427302 -0.054,-0.06297 v -1.718205 z m 2.72574,0 -0.76015,2.078039 q -0.0225,0.05847 -0.072,0.09446 -0.045,0.03598 -0.11245,0.03598 h -0.47677 q -0.063,0 -0.11245,-0.03598 -0.0495,-0.03598 -0.072,-0.09446 l -0.76015,-2.078039 h 0.58023 l 0.46329,1.44833 q 0.0315,0.09895 0.0585,0.202406 0.027,0.09896 0.0495,0.193411 h 0.0585 q 0.0315,-0.09895 0.0585,-0.197909 0.0315,-0.09895 0.0585,-0.197908 l 0.46328,-1.44833 z m 1.44633,-0.05397 q 0.26538,0 0.44529,0.07197 0.18442,0.06747 0.27887,0.233892 0.0945,0.166423 0.0945,0.458788 v 1.497807 h -0.4318 l -0.0765,-0.476779 -0.0405,-0.06297 v -0.962555 q 0,-0.175419 -0.081,-0.251883 -0.081,-0.08096 -0.31035,-0.08096 -0.17093,0 -0.4318,0.01349 -0.25639,0.01349 -0.51727,0.03598 l -0.0495,-0.373327 q 0.15742,-0.03149 0.35533,-0.05397 0.19791,-0.02249 0.40032,-0.03598 0.2024,-0.01349 0.36433,-0.01349 z m 0.58473,0.904082 -0.004,0.337344 h -1.01203 q -0.13494,0.0045 -0.19341,0.07197 -0.0585,0.06747 -0.0585,0.184415 v 0.121444 q 0,0.134937 0.072,0.206904 0.072,0.06747 0.2249,0.06747 0.12144,0 0.26987,-0.04948 0.14843,-0.04948 0.29237,-0.143934 0.14843,-0.09446 0.26538,-0.224896 v 0.283369 q -0.045,0.06747 -0.13044,0.161925 -0.0855,0.08996 -0.21141,0.179917 -0.12144,0.08996 -0.28337,0.148432 -0.15742,0.05847 -0.35083,0.05847 -0.19791,0 -0.35534,-0.06747 -0.15743,-0.07197 -0.24738,-0.206905 -0.09,-0.139435 -0.09,-0.341841 v -0.2339 q 0,-0.26088 0.17092,-0.404813 0.17542,-0.148431 0.47678,-0.148431 z m 1.37637,-1.790173 -0.005,2.482852 q 0,0.125942 0.072,0.193411 0.072,0.06297 0.20691,0.06297 h 0.19341 l 0.063,0.382323 q -0.0495,0.02249 -0.13944,0.04048 -0.0855,0.01799 -0.17991,0.02249 -0.09,0.009 -0.15743,0.009 -0.27437,0 -0.4363,-0.148432 -0.16192,-0.148431 -0.16192,-0.427302 v -2.61779 z m 1.7155,-0.08546 q 0.0765,0 0.19791,0.0045 0.12594,0.0045 0.25638,0.01349 0.13044,0.0045 0.2204,0.02249 l -0.045,0.364332 h -0.4363 q -0.18891,0 -0.26538,0.07646 -0.0765,0.07646 -0.0765,0.256382 v 2.496345 H 119.559 v -2.563814 q 0,-0.211402 0.0675,-0.359834 0.0675,-0.148431 0.22039,-0.229394 0.15293,-0.08096 0.40482,-0.08096 z m 0.50826,1.025526 v 0.377825 h -1.59226 v -0.355336 l 0.40931,-0.02249 z m 0.80963,0 0.072,0.4318 0.0495,0.06297 v 1.713707 h -0.54425 v -2.208478 z m 1.0795,-0.05397 -0.054,0.503767 h -0.15743 q -0.17541,0 -0.35533,0.05847 -0.17992,0.05847 -0.44979,0.175419 l -0.036,-0.319353 q 0.2339,-0.197908 0.47678,-0.305858 0.24289,-0.112448 0.46779,-0.112448 z m 0.92657,0.05397 v 2.208478 h -0.53975 v -2.208478 z m -0.14843,-0.958057 q 0.16192,0 0.16192,0.161925 v 0.251883 q 0,0.161925 -0.16192,0.161925 h -0.24289 q -0.16192,0 -0.16192,-0.161925 v -0.251883 q 0,-0.161925 0.16192,-0.161925 z"
         id="path6" />
    </g>
    <path
       style="font-weight:500;font-size:2.11667px;line-height:1;font-family:'Exo 2';-inkscape-font-specification:'Exo 2 Medium';text-align:center;letter-spacing:0px;word-spacing:0.140229px;text-anchor:middle;stroke-width:0.04;stroke-linecap:round"
       d="m 82.78049,72.775949 q 0.173567,0 0.2794,0.0381 0.107951,0.03598 0.156634,0.129116 0.04868,0.09102 0.04868,0.256118 0,0.116416 -0.02752,0.194733 -0.02752,0.07832 -0.08678,0.122767 -0.05715,0.04445 -0.156633,0.05715 v 0.01058 q 0.03598,0.0085 0.07197,0.03387 0.03598,0.0254 0.06773,0.06985 0.03175,0.04233 0.04657,0.10795 l 0.137583,0.459318 h -0.224367 l -0.127,-0.455084 q -0.0254,-0.08043 -0.06985,-0.1143 -0.04445,-0.03387 -0.116417,-0.03387 -0.13335,0 -0.2286,0 -0.09525,-0.0021 -0.160867,-0.0042 -0.0635,-0.0021 -0.103717,-0.0021 l 0.0063,-0.169334 h 0.482601 q 0.103717,-0.0021 0.162983,-0.02328 0.05927,-0.02328 0.08467,-0.08043 0.02752,-0.05715 0.02752,-0.160866 0,-0.103717 -0.02752,-0.158751 -0.0254,-0.05715 -0.08467,-0.07832 -0.05927,-0.02328 -0.162983,-0.02328 -0.177801,0 -0.306917,0.0021 -0.129117,0.0021 -0.173567,0.0021 l -0.02963,-0.160866 q 0.08043,-0.0085 0.1524,-0.0127 0.07197,-0.0042 0.156634,-0.0042 0.08678,-0.0021 0.205317,-0.0021 z m -0.3048,0.01905 v 1.460502 h -0.209551 v -1.460502 z m 1.515337,0.402167 q 0.239184,0 0.345018,0.08678 0.10795,0.08467 0.10795,0.251884 0.0021,0.1397 -0.06138,0.2159 -0.06138,0.0762 -0.201083,0.0762 h -0.596901 v -0.14605 h 0.543984 q 0.06985,0 0.09102,-0.04445 0.02117,-0.04445 0.02117,-0.1016 -0.0021,-0.09525 -0.05715,-0.135467 -0.05292,-0.04022 -0.18415,-0.04022 -0.10795,0 -0.169333,0.03175 -0.06138,0.03175 -0.08678,0.110067 -0.02328,0.07832 -0.02328,0.220134 0,0.15875 0.02963,0.243417 0.03175,0.08255 0.09948,0.1143 0.06985,0.03175 0.18415,0.03175 0.08043,0 0.179917,-0.0063 0.1016,-0.0085 0.18415,-0.01905 l 0.02117,0.13335 q -0.0508,0.02117 -0.122767,0.03598 -0.07197,0.0127 -0.148167,0.01905 -0.0762,0.0063 -0.1397,0.0063 -0.182034,0 -0.292101,-0.05503 -0.110066,-0.05503 -0.160867,-0.173567 -0.0508,-0.12065 -0.0508,-0.315383 0,-0.203201 0.0508,-0.321734 0.0508,-0.118534 0.158751,-0.167217 0.10795,-0.0508 0.277283,-0.0508 z m 1.318685,0 q 0.190501,0 0.273051,0.1397 0.08255,0.1397 0.08255,0.408517 0,0.201084 -0.04233,0.319618 -0.04233,0.116416 -0.129117,0.167216 -0.08467,0.04868 -0.218017,0.04868 -0.103717,0 -0.203201,-0.02752 -0.09737,-0.02963 -0.188383,-0.0889 l 0.0127,-0.1143 q 0.09313,0.02752 0.1651,0.04445 0.07408,0.01693 0.156634,0.01693 0.08678,0 0.137583,-0.02963 0.05292,-0.02963 0.0762,-0.110067 0.02328,-0.08043 0.02328,-0.226484 0,-0.143933 -0.02328,-0.224367 -0.02117,-0.08255 -0.06985,-0.116417 -0.04657,-0.03598 -0.124883,-0.03598 -0.08043,0 -0.158751,0.0381 -0.07832,0.03598 -0.179917,0.1143 l -0.02117,-0.127 q 0.05292,-0.05927 0.122767,-0.103717 0.07197,-0.04445 0.1524,-0.06773 0.08043,-0.0254 0.156633,-0.0254 z m -0.440267,0.0254 0.02117,0.20955 0.01482,0.02752 v 0.664634 l -0.0085,0.0254 q 0.0063,0.05927 0.0085,0.116417 0.0021,0.05715 0,0.12065 v 0.289984 h -0.2032 v -1.454152 z m 1.566335,-0.0254 q 0.118533,0 0.198967,0.03175 0.08255,0.02963 0.122767,0.103717 0.04233,0.07408 0.04233,0.2032 v 0.719668 H 86.63898 l -0.03175,-0.224367 -0.0127,-0.0254 v -0.469901 q 0,-0.09102 -0.04233,-0.131234 -0.04233,-0.04022 -0.160867,-0.04022 -0.08043,0 -0.203201,0.0085 -0.12065,0.0085 -0.239183,0.01693 l -0.01905,-0.14605 q 0.07197,-0.0127 0.15875,-0.02328 0.0889,-0.01058 0.179917,-0.01693 0.09102,-0.0063 0.167217,-0.0063 z m 0.270934,0.421217 -0.0021,0.143934 -0.486834,0.0021 q -0.07197,0.0021 -0.1016,0.0381 -0.02752,0.03387 -0.02752,0.09525 v 0.0635 q 0,0.0762 0.03598,0.112183 0.0381,0.03387 0.118534,0.03387 0.05927,0 0.131233,-0.02117 0.07408,-0.02328 0.148167,-0.06773 0.07408,-0.04657 0.133351,-0.116417 v 0.13335 q -0.02117,0.02963 -0.0635,0.07197 -0.04233,0.04022 -0.103716,0.07832 -0.05927,0.0381 -0.133351,0.0635 -0.07197,0.0254 -0.15875,0.0254 -0.09313,0 -0.1651,-0.03175 -0.06985,-0.03387 -0.110067,-0.09737 -0.04022,-0.06562 -0.04022,-0.15875 V 73.8745 q 0,-0.12065 0.0762,-0.188383 0.07832,-0.06773 0.215901,-0.06773 z m 0.560916,-0.395817 0.0254,0.198967 0.01905,0.02963 v 0.804335 h -0.2032 v -1.032935 z m 0.505884,-0.0254 -0.02117,0.1905 h -0.06562 q -0.08678,0 -0.177801,0.03387 -0.0889,0.03387 -0.218017,0.09737 l -0.01482,-0.124884 q 0.112183,-0.09313 0.226483,-0.143933 0.116417,-0.05292 0.224367,-0.05292 z m 0.69096,0 q 0.118534,0 0.198967,0.03175 0.08255,0.02963 0.122767,0.103717 0.04233,0.07408 0.04233,0.2032 v 0.719668 h -0.160867 l -0.03175,-0.224367 -0.0127,-0.0254 v -0.469901 q 0,-0.09102 -0.04233,-0.131234 -0.04233,-0.04022 -0.160867,-0.04022 -0.08043,0 -0.2032,0.0085 -0.12065,0.0085 -0.239184,0.01693 l -0.01905,-0.14605 q 0.07197,-0.0127 0.158751,-0.02328 0.0889,-0.01058 0.179917,-0.01693 0.09102,-0.0063 0.167216,-0.0063 z m 0.270934,0.421217 -0.0021,0.143934 -0.486835,0.0021 q -0.07197,0.0021 -0.1016,0.0381 -0.02752,0.03387 -0.02752,0.09525 v 0.0635 q 0,0.0762 0.03598,0.112183 0.0381,0.03387 0.118534,0.03387 0.05927,0 0.131233,-0.02117 0.07408,-0.02328 0.148167,-0.06773 0.07408,-0.04657 0.13335,-0.116417 v 0.13335 q -0.02117,0.02963 -0.0635,0.07197 -0.04233,0.04022 -0.103717,0.07832 -0.05927,0.0381 -0.13335,0.0635 -0.07197,0.0254 -0.15875,0.0254 -0.09313,0 -0.1651,-0.03175 -0.06985,-0.03387 -0.110067,-0.09737 -0.04022,-0.06562 -0.04022,-0.15875 V 73.8745 q 0,-0.12065 0.0762,-0.188383 0.07832,-0.06773 0.2159,-0.06773 z m 0.850901,-0.421217 q 0.04868,0 0.105833,0.0042 0.05927,0.0042 0.120651,0.01482 0.0635,0.01058 0.116417,0.03175 l -0.0254,0.131233 q -0.07408,-0.0063 -0.1524,-0.0085 -0.0762,-0.0042 -0.131233,-0.0042 -0.118534,0 -0.188384,0.03387 -0.06773,0.03175 -0.09737,0.112184 -0.02963,0.08043 -0.02963,0.224367 0,0.143933 0.02963,0.226483 0.02963,0.08255 0.09737,0.114301 0.06985,0.03175 0.188384,0.03175 0.03175,0 0.08255,-0.0021 0.0508,-0.0021 0.110067,-0.0063 0.05927,-0.0042 0.1143,-0.0127 l 0.01905,0.135467 q -0.07832,0.02963 -0.173567,0.04233 -0.09525,0.01482 -0.188384,0.01482 -0.182033,0 -0.2921,-0.05292 -0.10795,-0.05292 -0.156634,-0.17145 -0.04868,-0.118534 -0.04868,-0.319617 0,-0.198967 0.04868,-0.317501 0.0508,-0.118533 0.158751,-0.169333 0.110066,-0.05292 0.2921,-0.05292 z m 0.804334,0.0254 v 1.032935 H 90.18956 v -1.032935 z m -0.05292,-0.442384 q 0.06138,0 0.06138,0.06138 v 0.12065 q 0,0.06138 -0.06138,0.06138 h -0.09525 q -0.06138,0 -0.06138,-0.06138 v -0.12065 q 0,-0.06138 0.06138,-0.06138 z m 0.825501,0.416984 q 0.182034,0 0.289984,0.05292 0.110067,0.05292 0.156633,0.173567 0.04868,0.118533 0.04868,0.315383 0,0.198967 -0.04868,0.319617 -0.04657,0.118534 -0.156633,0.171451 -0.10795,0.05292 -0.289984,0.05292 -0.179917,0 -0.289984,-0.05292 -0.10795,-0.05292 -0.156633,-0.171451 -0.04868,-0.12065 -0.04868,-0.319617 0,-0.19685 0.04868,-0.315383 0.04868,-0.120651 0.156633,-0.173567 0.110067,-0.05292 0.289984,-0.05292 z m 0,0.1651 q -0.105833,0 -0.167217,0.03387 -0.06138,0.03387 -0.08678,0.116417 -0.0254,0.08043 -0.0254,0.226483 0,0.146051 0.0254,0.228601 0.0254,0.08255 0.08678,0.116417 0.06138,0.03175 0.167217,0.03175 0.105834,0 0.167217,-0.03175 0.0635,-0.03387 0.0889,-0.116417 0.0254,-0.08255 0.0254,-0.228601 0,-0.14605 -0.0254,-0.226483 -0.0254,-0.08255 -0.0889,-0.116417 -0.06138,-0.03387 -0.167217,-0.03387 z m 0.22225,-0.673101 0.110067,0.154517 -0.4191,0.249767 -0.06773,-0.09102 z m 1.187453,0.508001 q 0.281517,0 0.281517,0.283634 v 0.774701 h -0.205317 v -0.715435 q 0,-0.09737 -0.03175,-0.13335 -0.03175,-0.0381 -0.10795,-0.0381 -0.09102,0 -0.182033,0.04445 -0.09102,0.04233 -0.218017,0.118534 l -0.0085,-0.137584 q 0.118533,-0.09525 0.237067,-0.14605 0.118533,-0.0508 0.23495,-0.0508 z m -0.47625,0.0254 0.01905,0.198967 0.01482,0.02963 v 0.804335 h -0.2032 v -1.032935 z m 2.572084,0 -0.4064,1.081618 q -0.0254,0.06985 -0.06562,0.137584 -0.0381,0.06773 -0.09525,0.122767 -0.05715,0.05715 -0.135467,0.09102 -0.0762,0.03387 -0.177801,0.03387 l -0.01905,-0.129117 q 0.127001,-0.04022 0.194734,-0.105833 0.06985,-0.06562 0.110067,-0.160867 l 0.05292,-0.127 q 0.01693,-0.04445 0.03387,-0.09737 0.01693,-0.05503 0.03175,-0.09525 l 0.256117,-0.751418 z m -0.846668,0 0.260351,0.751418 q 0.01058,0.03175 0.01905,0.06562 0.01058,0.03175 0.01693,0.06562 h 0.0508 l -0.06562,0.150284 h -0.05927 q -0.0254,0 -0.04445,-0.0127 -0.01905,-0.01482 -0.02752,-0.04022 L 93.60408,73.222566 Z m 2.87285,-0.0254 q 0.135467,0 0.205317,0.07197 0.07197,0.07197 0.07197,0.211667 v 0.774701 h -0.2032 v -0.715435 q 0,-0.0889 -0.03598,-0.129116 -0.03387,-0.04233 -0.116417,-0.04233 -0.0508,0 -0.09737,0.01693 -0.04657,0.01693 -0.103717,0.05292 -0.05715,0.03387 -0.137584,0.09313 l -0.01058,-0.137584 q 0.110067,-0.09948 0.213783,-0.148167 0.103717,-0.04868 0.213784,-0.04868 z m -1.100668,0.0254 0.01482,0.198967 0.02117,0.02963 v 0.804335 h -0.2032 v -1.032935 z m 0.429684,-0.0254 q 0.13335,0 0.2032,0.07197 0.06985,0.06985 0.07197,0.211667 v 0.774701 h -0.19685 v -0.715435 q 0,-0.09313 -0.0381,-0.131233 -0.0381,-0.04022 -0.114301,-0.04022 -0.0508,0 -0.09737,0.01693 -0.04657,0.01482 -0.105834,0.0508 -0.05715,0.03387 -0.1397,0.09525 l -0.0127,-0.137584 q 0.110067,-0.09948 0.213783,-0.148167 0.103717,-0.04868 0.215901,-0.04868 z m 1.756838,0 q 0.118533,0 0.198967,0.03175 0.08255,0.02963 0.122766,0.103717 0.04233,0.07408 0.04233,0.2032 v 0.719668 h -0.160867 l -0.03175,-0.224367 -0.0127,-0.0254 v -0.469901 q 0,-0.09102 -0.04233,-0.131234 -0.04233,-0.04022 -0.160866,-0.04022 -0.08043,0 -0.203201,0.0085 -0.12065,0.0085 -0.239183,0.01693 l -0.01905,-0.14605 q 0.07197,-0.0127 0.15875,-0.02328 0.0889,-0.01058 0.179917,-0.01693 0.09102,-0.0063 0.167217,-0.0063 z m 0.270933,0.421217 -0.0021,0.143934 -0.486834,0.0021 q -0.07197,0.0021 -0.101601,0.0381 -0.02752,0.03387 -0.02752,0.09525 v 0.0635 q 0,0.0762 0.03598,0.112183 0.0381,0.03387 0.118534,0.03387 0.05927,0 0.131233,-0.02117 0.07408,-0.02328 0.148167,-0.06773 0.07408,-0.04657 0.13335,-0.116417 v 0.13335 q -0.02117,0.02963 -0.0635,0.07197 -0.04233,0.04022 -0.103717,0.07832 -0.05927,0.0381 -0.13335,0.0635 -0.07197,0.0254 -0.15875,0.0254 -0.09313,0 -0.1651,-0.03175 -0.06985,-0.03387 -0.110067,-0.09737 -0.04022,-0.06562 -0.04022,-0.15875 V 73.8745 q 0,-0.12065 0.0762,-0.188383 0.07832,-0.06773 0.215901,-0.06773 z m 1.047751,-0.421217 q 0.281518,0 0.281518,0.283634 v 0.774701 h -0.205317 v -0.715435 q 0,-0.09737 -0.03175,-0.13335 -0.03175,-0.0381 -0.107951,-0.0381 -0.09102,0 -0.182033,0.04445 -0.09102,0.04233 -0.218017,0.118534 l -0.0085,-0.137584 q 0.118534,-0.09525 0.237067,-0.14605 0.118534,-0.0508 0.23495,-0.0508 z m -0.47625,0.0254 0.01905,0.198967 0.01482,0.02963 v 0.804335 h -0.2032 V 73.222566 Z M 99.9779,72.919882 v 1.041402 q 0,0.07197 0.02963,0.103717 0.0318,0.02963 0.10584,0.02963 h 0.1524 l 0.0233,0.150283 q -0.036,0.01058 -0.0825,0.01693 -0.0445,0.0064 -0.091,0.0085 -0.0445,0.0042 -0.072,0.0042 -0.131236,0 -0.201086,-0.07197 -0.06985,-0.07197 -0.06985,-0.207434 v -1.075268 z m 0.32173,0.302684 v 0.1524 h -0.713314 v -0.141817 l 0.203201,-0.01058 z m 0.64559,-0.0254 q 0.23918,0 0.34502,0.08678 0.10795,0.08467 0.10795,0.251884 0.002,0.1397 -0.0614,0.2159 -0.0614,0.0762 -0.20108,0.0762 h -0.5969 v -0.14605 h 0.54398 q 0.0698,0 0.091,-0.04445 0.0212,-0.04445 0.0212,-0.1016 -0.002,-0.09525 -0.0572,-0.135467 -0.0529,-0.04022 -0.18415,-0.04022 -0.10795,0 -0.16934,0.03175 -0.0614,0.03175 -0.0868,0.110067 -0.0233,0.07832 -0.0233,0.220134 0,0.15875 0.0296,0.243417 0.0318,0.08255 0.0995,0.1143 0.0699,0.03175 0.18415,0.03175 0.0804,0 0.17992,-0.0063 0.1016,-0.0085 0.18415,-0.01905 l 0.0212,0.13335 q -0.0508,0.02117 -0.12277,0.03598 -0.072,0.0127 -0.14817,0.01905 -0.0762,0.0063 -0.1397,0.0063 -0.18203,0 -0.2921,-0.05503 -0.11006,-0.05503 -0.16086,-0.173567 -0.0508,-0.12065 -0.0508,-0.315383 0,-0.203201 0.0508,-0.321734 0.0508,-0.118534 0.15875,-0.167217 0.10795,-0.0508 0.27728,-0.0508 z m 1.35678,0 q 0.28152,0 0.28152,0.283634 v 0.774701 h -0.20532 v -0.715435 q 0,-0.09737 -0.0318,-0.13335 -0.0318,-0.0381 -0.10795,-0.0381 -0.091,0 -0.18203,0.04445 -0.091,0.04233 -0.21802,0.118534 l -0.008,-0.137584 q 0.11853,-0.09525 0.23706,-0.14605 0.11854,-0.0508 0.23495,-0.0508 z m -0.47625,0.0254 0.0191,0.198967 0.0148,0.02963 v 0.804335 h -0.2032 v -1.032935 z m 1.27847,0 v 1.032935 h -0.20108 v -1.032935 z m -0.0529,-0.442384 q 0.0614,0 0.0614,0.06138 v 0.12065 q 0,0.06138 -0.0614,0.06138 h -0.0952 q -0.0614,0 -0.0614,-0.06138 v -0.12065 q 0,-0.06138 0.0614,-0.06138 z m 1.64677,0.416984 q 0.13547,0 0.20532,0.07197 0.072,0.07197 0.072,0.211667 v 0.774701 h -0.2032 v -0.715435 q 0,-0.0889 -0.036,-0.129116 -0.0339,-0.04233 -0.11641,-0.04233 -0.0508,0 -0.0974,0.01693 -0.0466,0.01693 -0.10372,0.05292 -0.0572,0.03387 -0.13758,0.09313 l -0.0106,-0.137584 q 0.11006,-0.09948 0.21378,-0.148167 0.10372,-0.04868 0.21378,-0.04868 z m -1.10067,0.0254 0.0148,0.198967 0.0212,0.02963 v 0.804335 h -0.2032 v -1.032935 z m 0.42969,-0.0254 q 0.13335,0 0.2032,0.07197 0.0699,0.06985 0.072,0.211667 v 0.774701 h -0.19686 v -0.715435 q 0,-0.09313 -0.0381,-0.131233 -0.0381,-0.04022 -0.1143,-0.04022 -0.0508,0 -0.0974,0.01693 -0.0466,0.01482 -0.10584,0.0508 -0.0571,0.03387 -0.1397,0.09525 l -0.0127,-0.137584 q 0.11007,-0.09948 0.21379,-0.148167 0.10371,-0.04868 0.2159,-0.04868 z m 1.46897,0.0254 v 1.032935 H 105.295 v -1.032935 z m -0.0529,-0.442384 q 0.0614,0 0.0614,0.06138 v 0.12065 q 0,0.06138 -0.0614,0.06138 h -0.0952 q -0.0614,0 -0.0614,-0.06138 v -0.12065 q 0,-0.06138 0.0614,-0.06138 z m 0.81492,0.416984 q 0.23918,0 0.34502,0.08678 0.10795,0.08467 0.10795,0.251884 0.002,0.1397 -0.0614,0.2159 -0.0614,0.0762 -0.20108,0.0762 h -0.5969 v -0.14605 h 0.54398 q 0.0699,0 0.091,-0.04445 0.0212,-0.04445 0.0212,-0.1016 -0.002,-0.09525 -0.0571,-0.135467 -0.0529,-0.04022 -0.18415,-0.04022 -0.10795,0 -0.16934,0.03175 -0.0614,0.03175 -0.0868,0.110067 -0.0233,0.07832 -0.0233,0.220134 0,0.15875 0.0296,0.243417 0.0317,0.08255 0.0995,0.1143 0.0698,0.03175 0.18415,0.03175 0.0804,0 0.17992,-0.0063 0.1016,-0.0085 0.18415,-0.01905 l 0.0212,0.13335 q -0.0508,0.02117 -0.12277,0.03598 -0.072,0.0127 -0.14817,0.01905 -0.0762,0.0063 -0.1397,0.0063 -0.18203,0 -0.2921,-0.05503 -0.11006,-0.05503 -0.16086,-0.173567 -0.0508,-0.12065 -0.0508,-0.315383 0,-0.203201 0.0508,-0.321734 0.0508,-0.118534 0.15875,-0.167217 0.10795,-0.0508 0.27728,-0.0508 z m 1.35679,0 q 0.28151,0 0.28151,0.283634 v 0.774701 h -0.20531 v -0.715435 q 0,-0.09737 -0.0318,-0.13335 -0.0318,-0.0381 -0.10795,-0.0381 -0.091,0 -0.18204,0.04445 -0.091,0.04233 -0.21802,0.118534 l -0.008,-0.137584 q 0.11853,-0.09525 0.23706,-0.14605 0.11854,-0.0508 0.23496,-0.0508 z m -0.47626,0.0254 0.0191,0.198967 0.0148,0.02963 v 0.804335 h -0.2032 v -1.032935 z m 1.35467,-0.302684 v 1.041402 q 0,0.07197 0.0296,0.103717 0.0317,0.02963 0.10583,0.02963 h 0.1524 l 0.0233,0.150283 q -0.036,0.01058 -0.0825,0.01693 -0.0445,0.0064 -0.091,0.0085 -0.0444,0.0042 -0.072,0.0042 -0.13123,0 -0.20108,-0.07197 -0.0699,-0.07197 -0.0699,-0.207434 v -1.075268 z m 0.32174,0.302684 v 0.1524 h -0.71332 v -0.141817 l 0.2032,-0.01058 z m 0.65616,-0.0254 q 0.18204,0 0.28999,0.05292 0.11006,0.05292 0.15663,0.173567 0.0487,0.118533 0.0487,0.315383 0,0.198967 -0.0487,0.319617 -0.0466,0.118534 -0.15663,0.171451 -0.10795,0.05292 -0.28999,0.05292 -0.17991,0 -0.28998,-0.05292 -0.10795,-0.05292 -0.15663,-0.171451 -0.0487,-0.12065 -0.0487,-0.319617 0,-0.19685 0.0487,-0.315383 0.0487,-0.120651 0.15663,-0.173567 0.11007,-0.05292 0.28998,-0.05292 z m 0,0.1651 q -0.10583,0 -0.16721,0.03387 -0.0614,0.03387 -0.0868,0.116417 -0.0254,0.08043 -0.0254,0.226483 0,0.146051 0.0254,0.228601 0.0254,0.08255 0.0868,0.116417 0.0614,0.03175 0.16721,0.03175 0.10584,0 0.16722,-0.03175 0.0635,-0.03387 0.0889,-0.116417 0.0254,-0.08255 0.0254,-0.228601 0,-0.14605 -0.0254,-0.226483 -0.0254,-0.08255 -0.0889,-0.116417 -0.0614,-0.03387 -0.16722,-0.03387 z m 1.71927,-0.1651 q 0.10372,0 0.2032,0.02752 0.0995,0.0254 0.18838,0.08467 l -0.0127,0.118534 q -0.0931,-0.02963 -0.16721,-0.04657 -0.072,-0.01693 -0.15664,-0.01693 -0.0847,0 -0.13758,0.02963 -0.0508,0.02963 -0.0762,0.110067 -0.0233,0.08043 -0.0233,0.2286 0,0.146051 0.0233,0.228601 0.0233,0.08043 0.0741,0.112183 0.0508,0.03175 0.12912,0.03175 0.0593,0 0.10795,-0.01482 0.0487,-0.01482 0.1016,-0.04868 0.0529,-0.03387 0.12488,-0.08467 l 0.0169,0.131234 q -0.0804,0.08043 -0.18839,0.137583 -0.10583,0.05503 -0.23495,0.05503 -0.19473,0 -0.2794,-0.137584 -0.0847,-0.1397 -0.0847,-0.408517 0,-0.2032 0.0423,-0.319617 0.0445,-0.118534 0.13123,-0.167217 0.0868,-0.0508 0.21802,-0.0508 z m 0.5588,-0.423334 v 1.481669 h -0.16087 l -0.0233,-0.182034 -0.0212,-0.01693 v -0.702735 l 0.0127,-0.03175 q -0.008,-0.05927 -0.0106,-0.116416 -0.002,-0.05715 -0.002,-0.120651 v -0.31115 z m 0.75353,0.423334 q 0.23919,0 0.34502,0.08678 0.10795,0.08467 0.10795,0.251884 0.002,0.1397 -0.0614,0.2159 -0.0614,0.0762 -0.20109,0.0762 h -0.5969 v -0.14605 h 0.54399 q 0.0699,0 0.091,-0.04445 0.0212,-0.04445 0.0212,-0.1016 -0.002,-0.09525 -0.0571,-0.135467 -0.0529,-0.04022 -0.18415,-0.04022 -0.10795,0 -0.16933,0.03175 -0.0614,0.03175 -0.0868,0.110067 -0.0233,0.07832 -0.0233,0.220134 0,0.15875 0.0296,0.243417 0.0318,0.08255 0.0995,0.1143 0.0699,0.03175 0.18415,0.03175 0.0804,0 0.17991,-0.0063 0.1016,-0.0085 0.18415,-0.01905 l 0.0212,0.13335 q -0.0508,0.02117 -0.12277,0.03598 -0.072,0.0127 -0.14816,0.01905 -0.0762,0.0063 -0.1397,0.0063 -0.18204,0 -0.2921,-0.05503 -0.11007,-0.05503 -0.16087,-0.173567 -0.0508,-0.12065 -0.0508,-0.315383 0,-0.203201 0.0508,-0.321734 0.0508,-0.118534 0.15875,-0.167217 0.10795,-0.0508 0.27728,-0.0508 z m 1.75737,0 q 0.23918,0 0.34502,0.08678 0.10795,0.08467 0.10795,0.251884 0.002,0.1397 -0.0614,0.2159 -0.0614,0.0762 -0.20108,0.0762 h -0.5969 v -0.14605 h 0.54398 q 0.0699,0 0.091,-0.04445 0.0212,-0.04445 0.0212,-0.1016 -0.002,-0.09525 -0.0572,-0.135467 -0.0529,-0.04022 -0.18415,-0.04022 -0.10795,0 -0.16934,0.03175 -0.0614,0.03175 -0.0868,0.110067 -0.0233,0.07832 -0.0233,0.220134 0,0.15875 0.0296,0.243417 0.0318,0.08255 0.0995,0.1143 0.0699,0.03175 0.18415,0.03175 0.0804,0 0.17992,-0.0063 0.1016,-0.0085 0.18415,-0.01905 l 0.0212,0.13335 q -0.0508,0.02117 -0.12277,0.03598 -0.072,0.0127 -0.14817,0.01905 -0.0762,0.0063 -0.1397,0.0063 -0.18203,0 -0.2921,-0.05503 -0.11007,-0.05503 -0.16087,-0.173567 -0.0508,-0.12065 -0.0508,-0.315383 0,-0.203201 0.0508,-0.321734 0.0508,-0.118534 0.15875,-0.167217 0.10796,-0.0508 0.27729,-0.0508 z m 1.13665,0 q 0.0487,0 0.11007,0.0042 0.0635,0.0042 0.12911,0.01482 0.0656,0.0085 0.127,0.02328 0.0614,0.0127 0.11219,0.02963 l -0.16722,0.135466 q -0.0508,-0.01482 -0.10795,-0.0254 -0.055,-0.01058 -0.10795,-0.01482 -0.0508,-0.0042 -0.0952,-0.0021 -0.0974,0.0021 -0.15663,0.03598 -0.0571,0.03387 -0.0825,0.118534 -0.0254,0.08255 -0.0254,0.237067 0,0.182034 0.0444,0.2667 0.0466,0.08467 0.17568,0.08467 0.0931,0 0.16933,-0.0381 0.0762,-0.0381 0.17145,-0.103717 l 0.0254,0.122767 q -0.0635,0.05715 -0.13546,0.1016 -0.0699,0.04445 -0.14605,0.06985 -0.0741,0.0254 -0.15664,0.0254 -0.18203,0 -0.27093,-0.129117 -0.0868,-0.131234 -0.0868,-0.410634 0,-0.133351 0.0212,-0.234951 0.0233,-0.1016 0.0762,-0.17145 0.055,-0.06985 0.14605,-0.103717 0.091,-0.03598 0.23072,-0.03598 z m 0.27305,0.06562 0.20532,0.0063 v 1.407585 h -0.20532 l -0.002,-0.347134 q 0,-0.06773 0.004,-0.122767 0.006,-0.05715 0.0191,-0.116416 l -0.0212,-0.02963 z m 0.71544,-0.04022 V 73.938 q 0,0.09313 0.036,0.131234 0.036,0.0381 0.12065,0.0381 0.0825,0 0.16298,-0.0381 0.0825,-0.0381 0.19897,-0.112184 l 0.0233,0.133351 q -0.11853,0.09525 -0.23283,0.143933 -0.11218,0.04868 -0.2286,0.04868 -0.28363,0 -0.28363,-0.283634 v -0.776818 z m 0.70273,0 v 1.032935 h -0.1651 l -0.019,-0.196851 -0.0212,-0.03175 v -0.804334 z m 0.52493,0 v 1.032935 h -0.20108 v -1.032935 z m -0.0529,-0.442384 q 0.0614,0 0.0614,0.06138 v 0.12065 q 0,0.06138 -0.0614,0.06138 h -0.0953 q -0.0614,0 -0.0614,-0.06138 v -0.12065 q 0,-0.06138 0.0614,-0.06138 z m 0.98637,0.416984 q 0.1905,0 0.27305,0.1397 0.0825,0.1397 0.0825,0.408517 0,0.201084 -0.0423,0.319618 -0.0423,0.116416 -0.12912,0.167216 -0.0847,0.04868 -0.21801,0.04868 -0.10372,0 -0.2032,-0.02752 -0.0974,-0.02963 -0.18839,-0.0889 l 0.0127,-0.1143 q 0.0931,0.02752 0.1651,0.04445 0.0741,0.01693 0.15664,0.01693 0.0868,0 0.13758,-0.02963 0.0529,-0.02963 0.0762,-0.110067 0.0233,-0.08043 0.0233,-0.226484 0,-0.143933 -0.0233,-0.224367 -0.0212,-0.08255 -0.0699,-0.116417 -0.0466,-0.03598 -0.12488,-0.03598 -0.0804,0 -0.15875,0.0381 -0.0783,0.03598 -0.17992,0.1143 l -0.0212,-0.127 q 0.0529,-0.05927 0.12277,-0.103717 0.072,-0.04445 0.1524,-0.06773 0.0804,-0.0254 0.15663,-0.0254 z m -0.44026,0.0254 0.0212,0.20955 0.0148,0.02752 v 0.664634 l -0.008,0.0254 q 0.006,0.05927 0.008,0.116417 0.002,0.05715 0,0.12065 v 0.289984 h -0.2032 v -1.454152 z m 1.51553,-0.0254 q 0.18203,0 0.28998,0.05292 0.11007,0.05292 0.15664,0.173567 0.0487,0.118533 0.0487,0.315383 0,0.198967 -0.0487,0.319617 -0.0466,0.118534 -0.15664,0.171451 -0.10795,0.05292 -0.28998,0.05292 -0.17992,0 -0.28998,-0.05292 -0.10795,-0.05292 -0.15664,-0.171451 -0.0487,-0.12065 -0.0487,-0.319617 0,-0.19685 0.0487,-0.315383 0.0487,-0.120651 0.15664,-0.173567 0.11006,-0.05292 0.28998,-0.05292 z m 0,0.1651 q -0.10583,0 -0.16722,0.03387 -0.0614,0.03387 -0.0868,0.116417 -0.0254,0.08043 -0.0254,0.226483 0,0.146051 0.0254,0.228601 0.0254,0.08255 0.0868,0.116417 0.0614,0.03175 0.16722,0.03175 0.10583,0 0.16722,-0.03175 0.0635,-0.03387 0.0889,-0.116417 0.0254,-0.08255 0.0254,-0.228601 0,-0.14605 -0.0254,-0.226483 -0.0254,-0.08255 -0.0889,-0.116417 -0.0614,-0.03387 -0.16722,-0.03387 z m 2.64214,-0.1651 q 0.13546,0 0.20532,0.07197 0.072,0.07197 0.072,0.211667 v 0.774701 h -0.2032 v -0.715435 q 0,-0.0889 -0.036,-0.129116 -0.0339,-0.04233 -0.11642,-0.04233 -0.0508,0 -0.0974,0.01693 -0.0466,0.01693 -0.10371,0.05292 -0.0572,0.03387 -0.13759,0.09313 l -0.0106,-0.137584 q 0.11007,-0.09948 0.21378,-0.148167 0.10372,-0.04868 0.21379,-0.04868 z m -1.10067,0.0254 0.0148,0.198967 0.0212,0.02963 v 0.804335 h -0.2032 v -1.032935 z m 0.42968,-0.0254 q 0.13335,0 0.2032,0.07197 0.0698,0.06985 0.072,0.211667 v 0.774701 h -0.19685 v -0.715435 q 0,-0.09313 -0.0381,-0.131233 -0.0381,-0.04022 -0.1143,-0.04022 -0.0508,0 -0.0974,0.01693 -0.0466,0.01482 -0.10583,0.0508 -0.0572,0.03387 -0.1397,0.09525 l -0.0127,-0.137584 q 0.11007,-0.09948 0.21378,-0.148167 0.10372,-0.04868 0.2159,-0.04868 z m 1.69546,0 q 0.23918,0 0.34501,0.08678 0.10795,0.08467 0.10795,0.251884 0.002,0.1397 -0.0614,0.2159 -0.0614,0.0762 -0.20108,0.0762 h -0.5969 v -0.14605 h 0.54398 q 0.0699,0 0.091,-0.04445 0.0212,-0.04445 0.0212,-0.1016 -0.002,-0.09525 -0.0572,-0.135467 -0.0529,-0.04022 -0.18415,-0.04022 -0.10795,0 -0.16933,0.03175 -0.0614,0.03175 -0.0868,0.110067 -0.0233,0.07832 -0.0233,0.220134 0,0.15875 0.0296,0.243417 0.0318,0.08255 0.0995,0.1143 0.0699,0.03175 0.18415,0.03175 0.0804,0 0.17992,-0.0063 0.1016,-0.0085 0.18415,-0.01905 l 0.0212,0.13335 q -0.0508,0.02117 -0.12276,0.03598 -0.072,0.0127 -0.14817,0.01905 -0.0762,0.0063 -0.1397,0.0063 -0.18203,0 -0.2921,-0.05503 -0.11007,-0.05503 -0.16087,-0.173567 -0.0508,-0.12065 -0.0508,-0.315383 0,-0.203201 0.0508,-0.321734 0.0508,-0.118534 0.15875,-0.167217 0.10795,-0.0508 0.27729,-0.0508 z m 0.22648,-0.518584 0.11007,0.154517 -0.4191,0.249767 -0.0677,-0.09102 z m 0.82974,0.518584 q 0.10371,0 0.2032,0.02752 0.0995,0.0254 0.18838,0.08467 l -0.0127,0.118534 q -0.0931,-0.02963 -0.16722,-0.04657 -0.072,-0.01693 -0.15663,-0.01693 -0.0847,0 -0.13758,0.02963 -0.0508,0.02963 -0.0762,0.110067 -0.0233,0.08043 -0.0233,0.2286 0,0.146051 0.0233,0.228601 0.0233,0.08043 0.0741,0.112183 0.0508,0.03175 0.12912,0.03175 0.0593,0 0.10795,-0.01482 0.0487,-0.01482 0.1016,-0.04868 0.0529,-0.03387 0.12488,-0.08467 l 0.0169,0.131234 q -0.0804,0.08043 -0.18838,0.137583 -0.10583,0.05503 -0.23495,0.05503 -0.19473,0 -0.2794,-0.137584 -0.0847,-0.1397 -0.0847,-0.408517 0,-0.2032 0.0423,-0.319617 0.0444,-0.118534 0.13124,-0.167217 0.0868,-0.0508 0.21802,-0.0508 z m 0.5588,-0.423334 v 1.481669 h -0.16087 l -0.0233,-0.182034 -0.0212,-0.01693 v -0.702735 l 0.0127,-0.03175 q -0.008,-0.05927 -0.0106,-0.116416 -0.002,-0.05715 -0.002,-0.120651 v -0.31115 z m 0.52705,0.448734 v 1.032935 h -0.20109 v -1.032935 z m -0.0529,-0.442384 q 0.0614,0 0.0614,0.06138 v 0.12065 q 0,0.06138 -0.0614,0.06138 h -0.0952 q -0.0614,0 -0.0614,-0.06138 v -0.12065 q 0,-0.06138 0.0614,-0.06138 z m 0.82762,0.416984 q 0.0487,0 0.10583,0.0042 0.0593,0.0042 0.12065,0.01482 0.0635,0.01058 0.11642,0.03175 l -0.0254,0.131233 q -0.0741,-0.0063 -0.1524,-0.0085 -0.0762,-0.0042 -0.13124,-0.0042 -0.11853,0 -0.18838,0.03387 -0.0677,0.03175 -0.0974,0.112184 -0.0296,0.08043 -0.0296,0.224367 0,0.143933 0.0296,0.226483 0.0296,0.08255 0.0974,0.114301 0.0699,0.03175 0.18838,0.03175 0.0318,0 0.0825,-0.0021 0.0508,-0.0021 0.11007,-0.0063 0.0593,-0.0042 0.1143,-0.0127 l 0.019,0.135467 q -0.0783,0.02963 -0.17356,0.04233 -0.0953,0.01482 -0.18839,0.01482 -0.18203,0 -0.2921,-0.05292 -0.10795,-0.05292 -0.15663,-0.17145 -0.0487,-0.118534 -0.0487,-0.319617 0,-0.198967 0.0487,-0.317501 0.0508,-0.118533 0.15875,-0.169333 0.11006,-0.05292 0.2921,-0.05292 z m 1.02506,0 q 0.18203,0 0.28998,0.05292 0.11007,0.05292 0.15664,0.173567 0.0487,0.118533 0.0487,0.315383 0,0.198967 -0.0487,0.319617 -0.0466,0.118534 -0.15664,0.171451 -0.10795,0.05292 -0.28998,0.05292 -0.17992,0 -0.28998,-0.05292 -0.10795,-0.05292 -0.15664,-0.171451 -0.0487,-0.12065 -0.0487,-0.319617 0,-0.19685 0.0487,-0.315383 0.0487,-0.120651 0.15664,-0.173567 0.11006,-0.05292 0.28998,-0.05292 z m 0,0.1651 q -0.10583,0 -0.16722,0.03387 -0.0614,0.03387 -0.0868,0.116417 -0.0254,0.08043 -0.0254,0.226483 0,0.146051 0.0254,0.228601 0.0254,0.08255 0.0868,0.116417 0.0614,0.03175 0.16722,0.03175 0.10583,0 0.16722,-0.03175 0.0635,-0.03387 0.0889,-0.116417 0.0254,-0.08255 0.0254,-0.228601 0,-0.14605 -0.0254,-0.226483 -0.0254,-0.08255 -0.0889,-0.116417 -0.0614,-0.03387 -0.16722,-0.03387 z"
       id="text4"
       aria-label="Reparacin y mantenimiento de equipo mdico" />
  </g>
</svg>
