<?xml version="1.0" encoding="UTF-8" standalone="no"?>
<!-- Created with Inkscape (http://www.inkscape.org/) -->

<svg
   width="500"
   height="150"
   viewBox="0 0 132.29167 39.6875"
   version="1.1"
   id="svg469"
   inkscape:version="1.2.1 (9c6d41e410, 2022-07-14)"
   sodipodi:docname="Juvalfri-logo.svg"
   xmlns:inkscape="http://www.inkscape.org/namespaces/inkscape"
   xmlns:sodipodi="http://sodipodi.sourceforge.net/DTD/sodipodi-0.dtd"
   xmlns="http://www.w3.org/2000/svg"
   xmlns:svg="http://www.w3.org/2000/svg">
  <sodipodi:namedview
     id="namedview471"
     pagecolor="#ffffff"
     bordercolor="#000000"
     borderopacity="0.25"
     inkscape:showpageshadow="2"
     inkscape:pageopacity="0.0"
     inkscape:pagecheckerboard="0"
     inkscape:deskcolor="#d1d1d1"
     inkscape:document-units="px"
     showgrid="false"
     inkscape:zoom="1.0544998"
     inkscape:cx="117.5913"
     inkscape:cy="71.12377"
     inkscape:window-width="1920"
     inkscape:window-height="1017"
     inkscape:window-x="-8"
     inkscape:window-y="-8"
     inkscape:window-maximized="1"
     inkscape:current-layer="layer1" />
  <defs
     id="defs466">
    <filter
       style="color-interpolation-filters:sRGB"
       inkscape:label="Drop Shadow"
       id="filter2281"
       x="-0.04403276"
       y="-0.04403276"
       width="1.1125282"
       height="1.1125282">
      <feFlood
         flood-opacity="0.498039"
         flood-color="rgb(0,0,0)"
         result="flood"
         id="feFlood2271" />
      <feComposite
         in="flood"
         in2="SourceGraphic"
         operator="in"
         result="composite1"
         id="feComposite2273" />
      <feGaussianBlur
         in="composite1"
         stdDeviation="3"
         result="blur"
         id="feGaussianBlur2275" />
      <feOffset
         dx="4"
         dy="4"
         result="offset"
         id="feOffset2277" />
      <feComposite
         in="SourceGraphic"
         in2="offset"
         operator="over"
         result="composite2"
         id="feComposite2279" />
    </filter>
  </defs>
  <g
     inkscape:label="Capa 1"
     inkscape:groupmode="layer"
     id="layer1"
     transform="translate(-74.316898,-132.54216)">
    <g
       id="g1298"
       inkscape:export-filename="g1298.png"
       inkscape:export-xdpi="96"
       inkscape:export-ydpi="96">
      <rect
         style="fill:#ffffff;fill-opacity:1;stroke:none;stroke-width:0.123352;stroke-linecap:round;stroke-dasharray:none"
         id="rect360"
         width="132.29167"
         height="39.6875"
         x="74.316895"
         y="132.54216"
         ry="3.4441357"
         rx="3.4441357" />
      <g
         id="g2693"
         transform="matrix(3.0684107,0,0,3.1354864,-141.15019,-278.90872)">
        <path
           id="path864"
           style="fill:none;stroke:#8b284c;stroke-width:0.638578;stroke-linecap:round;stroke-linejoin:round;stroke-miterlimit:4;stroke-dasharray:none;stroke-opacity:1"
           d="m 89.454095,136.17761 2.142858,-0.008 m -16.776551,3.88984 3.213308,0.002 c 0.360667,-0.29496 0.478897,-0.51424 0.698689,-0.70193 1.128901,-0.96401 2.654105,-0.72188 3.454749,0.004 0.266675,0.24178 0.511744,0.44297 0.863854,0.7021 l 3.217249,0.003 1.24561,1.1636 c 1.090326,-2.78274 3.144775,-8.35869 3.144775,-8.35869 l 2.77602,9.35837 0.55178,-2.15679 2.838221,0.002 1.955235,-1.629 c 0.447899,-0.37717 1.625248,-0.94077 2.822398,0.002 0.86044,0.78706 1.94871,1.66901 2.6962,1.63328 0.74748,-0.0357 0.97784,-0.77377 2.28883,0.002 l 2.28332,0.002"
           sodipodi:nodetypes="ccccsscccccccccscc" />
        <path
           d="m 76.439069,133.11954 v 3.5124 c 0,0.32106 -0.102849,0.56506 -0.308547,0.73201 -0.205698,0.16267 -0.497104,0.24401 -0.874217,0.24401 -0.07999,0 -0.174272,-0.004 -0.282835,-0.0128 -0.108563,-0.004 -0.214269,-0.0128 -0.317118,-0.0257 -0.09713,-0.0128 -0.194461,-0.004 -0.248552,-0.0514 -0.07893,-0.069 -0.09991,-0.17459 -0.08764,-0.25446 0.01057,-0.0688 0.04991,-0.1886 0.181919,-0.1886 h 0.428538 c 0.434252,0 0.651378,-0.15411 0.651378,-0.46233 v -3.49313 c 0,-0.23093 0.298936,-0.24507 0.435222,-0.2437 0.1491,0.002 0.421853,0.0424 0.421852,0.2437 z"
           style="font-style:normal;font-variant:normal;font-weight:500;font-stretch:normal;font-size:37.0417px;line-height:1.25;font-family:'Exo 2';-inkscape-font-specification:'Exo 2 Medium';white-space:pre;fill:#000000;fill-opacity:1;stroke:none;stroke-width:0.200223;stroke-linecap:round;stroke-linejoin:round;stroke-miterlimit:4;stroke-dasharray:none"
           id="path2704"
           sodipodi:nodetypes="sscsccssssssss" />
        <path
           d="m 82.198607,133.11954 v 2.72259 c 0,0.43236 -0.07142,0.78124 -0.214269,1.04665 -0.137132,0.26113 -0.362829,0.45163 -0.67709,0.57149 -0.314261,0.11558 -0.734228,0.17337 -1.259901,0.17337 -0.548528,0 -0.985637,-0.0578 -1.311326,-0.17337 -0.325689,-0.11986 -0.562813,-0.31036 -0.711373,-0.57149 -0.142846,-0.26541 -0.214268,-0.61429 -0.214268,-1.04665 v -2.72259 c 0,-0.18962 0.275333,-0.23124 0.435693,-0.22775 0.126139,0.003 0.421382,0.004 0.421382,0.22775 v 2.72259 c 0,0.30822 0.04,0.55436 0.119991,0.73844 0.08571,0.17979 0.225696,0.30821 0.419967,0.38527 0.199984,0.0728 0.465678,0.10916 0.79708,0.10916 0.331403,0 0.591382,-0.0364 0.779939,-0.10916 0.194271,-0.0771 0.33426,-0.20548 0.419967,-0.38527 0.09142,-0.18408 0.137132,-0.43022 0.137132,-0.73844 v -2.72259 c 0,-0.18655 0.267486,-0.22834 0.424424,-0.22727 0.128562,8.7e-4 0.432652,-0.001 0.432652,0.22727 z"
           style="font-style:normal;font-variant:normal;font-weight:500;font-stretch:normal;font-size:37.0417px;line-height:1.25;font-family:'Exo 2';-inkscape-font-specification:'Exo 2 Medium';white-space:pre;fill:#000000;fill-opacity:1;stroke:none;stroke-width:0.200249;stroke-linecap:round;stroke-linejoin:round;stroke-miterlimit:4;stroke-dasharray:none"
           id="path869"
           sodipodi:nodetypes="ssccsccsssssccsccssss" />
        <path
           d="m 88.018134,133.11954 -1.765575,4.25083 c -0.02286,0.0471 -0.06285,0.0899 -0.119991,0.12843 -0.05714,0.0342 -0.122848,0.0514 -0.197127,0.0514 h -0.848505 c -0.07999,0 -0.14856,-0.0171 -0.205699,-0.0514 -0.05714,-0.0385 -0.09713,-0.0813 -0.11999,-0.12843 l -1.757005,-4.25083 c -0.05097,-0.12331 0.136163,-0.2272 0.300503,-0.23097 0.126926,-0.003 0.47187,-0.0765 0.590856,0.23097 l 1.337038,3.45461 0.08571,0.244 c 0.02294,0.0619 0.04403,0.1251 0.06328,0.18972 0.0047,0.0159 0.0076,0.0304 0.01903,0.0394 0.0101,0.008 0.03776,0.008 0.03776,0.008 h 0.150963 c 0,0 0.02406,3.1e-4 0.03297,-0.006 0.0089,-0.007 0.01144,-0.0179 0.01499,-0.03 0.02016,-0.0692 0.04239,-0.13833 0.06669,-0.2075 0.02857,-0.0813 0.06,-0.16267 0.09428,-0.24401 l 1.328468,-3.44818 c 0.107733,-0.27963 0.426137,-0.24754 0.567527,-0.2417 0.149097,0.006 0.385701,0.0927 0.323831,0.2417 z"
           style="font-style:normal;font-variant:normal;font-weight:500;font-stretch:normal;font-size:37.0417px;line-height:1.25;font-family:'Exo 2';-inkscape-font-specification:'Exo 2 Medium';white-space:pre;fill:#000000;fill-opacity:1;stroke:none;stroke-width:0.200249;stroke-linecap:round;stroke-linejoin:round;stroke-miterlimit:4;stroke-dasharray:none;paint-order:stroke fill markers"
           id="path871"
           sodipodi:nodetypes="sccssccsssccsaccasscsss" />
        <path
           d="m 94.789012,133.11954 v 3.49313 c 0,0.13699 0.04571,0.23973 0.137132,0.30822 0.09142,0.0642 0.231411,0.0963 0.419967,0.0963 h 2.116975 c 0.150016,0 0.176095,0.14965 0.178155,0.22151 0.0027,0.0926 -0.02361,0.26635 -0.1353,0.27292 -0.39589,0.0233 -0.741096,0.0248 -1.165623,0.0385 -0.394071,0.0128 -0.788509,0.006 -1.182763,0.006 -0.434252,0 -0.745656,-0.0792 -0.934213,-0.23759 -0.188556,-0.16267 -0.282835,-0.36601 -0.282835,-0.61001 v -3.58945 c 0,-0.18661 0.276416,-0.21578 0.436815,-0.20868 0.124872,0.006 0.41169,0.002 0.41169,0.20868 z"
           style="font-style:normal;font-variant:normal;font-weight:500;font-stretch:normal;font-size:37.0417px;line-height:1.25;font-family:'Exo 2';-inkscape-font-specification:'Exo 2 Medium';white-space:pre;fill:#000000;fill-opacity:1;stroke:none;stroke-width:0.200249;stroke-linecap:round;stroke-linejoin:round;stroke-miterlimit:4;stroke-dasharray:none"
           id="path875"
           sodipodi:nodetypes="sscsssssscssss" />
        <path
           d="m 99.545777,133.11312 c 0.279979,0 0.562813,0.002 0.848503,0.006 0.2857,0 0.56853,0.002 0.84851,0.006 0.25893,0.004 0.50564,0.0134 0.74013,0.0284 0.0191,0.001 0.057,0.004 0.057,0.004 0.0819,0.0991 0.0824,0.20538 0.0751,0.28194 -0.008,0.0855 -0.0326,0.20607 -0.11795,0.20607 h -0.0564 -2.14623 c -0.194269,0 -0.337114,0.0321 -0.428536,0.0963 -0.08571,0.0642 -0.128564,0.16695 -0.128564,0.30822 v 3.25536 c 0,0.266 -0.160563,0.24533 -0.426649,0.24419 -0.331603,-0.001 -0.430425,0.009 -0.430425,-0.24678 v -3.37478 c 0,-0.25684 0.105705,-0.4559 0.317119,-0.59717 0.211411,-0.14554 0.494245,-0.21832 0.848502,-0.21832 z m -1.019919,1.91994 h 2.995042 c 0.14572,0.0469 0.15022,0.15439 0.15043,0.2523 2e-4,0.0962 0.002,0.20824 -0.14676,0.24855 h -2.998712 z"
           style="font-style:normal;font-variant:normal;font-weight:500;font-stretch:normal;font-size:37.0417px;line-height:1.25;font-family:'Exo 2';-inkscape-font-specification:'Exo 2 Medium';white-space:pre;fill:#000000;fill-opacity:1;stroke:none;stroke-width:0.200249;stroke-linecap:round;stroke-linejoin:round;stroke-miterlimit:4;stroke-dasharray:none"
           id="path877"
           sodipodi:nodetypes="scssssscscssssccsccaccc" />
        <path
           d="m 105.12534,133.06175 c 0.46854,0 0.84565,0.0385 1.13134,0.11559 0.29141,0.0728 0.50282,0.20333 0.63424,0.39169 0.13142,0.18407 0.19713,0.44306 0.19713,0.77696 0,0.23545 -0.0371,0.43236 -0.11143,0.59075 -0.0743,0.15839 -0.19141,0.28253 -0.3514,0.37243 -0.15427,0.0899 -0.36568,0.14769 -0.63423,0.17337 v 0.0321 c 0.0971,0.0171 0.19427,0.0514 0.2914,0.10274 0.0971,0.0514 0.18856,0.122 0.27427,0.2119 0.0857,0.0856 0.14856,0.19477 0.18855,0.32748 l 0.45136,1.12892 c 0.1013,0.24751 0.15789,0.26448 -0.11569,0.26448 h -0.68707 l -0.51424,-1.38056 c -0.0686,-0.16267 -0.16285,-0.27825 -0.28284,-0.34674 -0.11999,-0.0685 -0.27712,-0.10274 -0.47139,-0.10274 h -0.92564 c -0.25712,-0.004 -0.47425,-0.009 -0.65138,-0.0129 -0.17141,-0.004 -0.3114,-0.006 -0.41997,-0.006 l 0.0257,-0.51369 h 1.95413 c 0.27998,-0.004 0.49996,-0.0278 0.65995,-0.0706 0.15999,-0.0471 0.27426,-0.12843 0.34283,-0.24401 0.0743,-0.11558 0.11142,-0.27825 0.11142,-0.48801 0,-0.20976 -0.0371,-0.37029 -0.11142,-0.48159 -0.0686,-0.11558 -0.18284,-0.19477 -0.34283,-0.23758 -0.15999,-0.0471 -0.37997,-0.0706 -0.65995,-0.0706 -0.36902,0 -0.69919,0.001 -0.99052,0.004 -0.0876,7.7e-4 -0.19183,0.0126 -0.22658,0.0998 -0.0164,0.0411 -0.0958,0.10002 -0.13632,0.10049 -0.045,5.3e-4 -0.10427,-0.19507 -0.14475,-0.19463 -0.2104,0.002 -0.35953,0.003 -0.44739,0.003 l -0.11999,-0.48801 c 0.21712,-0.0171 0.42282,-0.03 0.61709,-0.0385 0.19427,-0.009 0.40568,-0.0128 0.63424,-0.0128 0.23426,-0.004 0.51139,-0.006 0.83136,-0.006 z m -1.23419,0.0578 v 4.43063 c 0,0.0585 -0.27757,0.0943 -0.41435,0.0933 -0.14597,-0.001 -0.43415,-0.0422 -0.43415,-0.0933 v -4.43063 z"
           style="font-style:normal;font-variant:normal;font-weight:500;font-stretch:normal;font-size:37.0417px;line-height:1.25;font-family:'Exo 2';-inkscape-font-specification:'Exo 2 Medium';white-space:pre;fill:#000000;fill-opacity:1;stroke:none;stroke-width:0.200249;stroke-linecap:round;stroke-linejoin:round;stroke-miterlimit:4;stroke-dasharray:none"
           id="path879"
           sodipodi:nodetypes="cccsscccsccccccsscccccccsccsssssccscscsssccs" />
        <path
           d="m 109.2393,133.11954 v 4.43063 c 0,0.17364 -0.28296,0.13901 -0.41569,0.14108 -0.15354,0.002 -0.44139,0.0269 -0.44139,-0.14108 v -4.43063 c 0,-0.14949 0.26653,-0.12689 0.4176,-0.13011 0.13283,-0.003 0.43948,-0.0184 0.43948,0.13011 z"
           style="font-style:normal;font-variant:normal;font-weight:500;font-stretch:normal;font-size:37.0417px;line-height:1.25;font-family:'Exo 2';-inkscape-font-specification:'Exo 2 Medium';white-space:pre;fill:#000000;fill-opacity:1;stroke:none;stroke-width:0.200249;stroke-linecap:round;stroke-linejoin:round;stroke-miterlimit:4;stroke-dasharray:none"
           id="path881"
           sodipodi:nodetypes="sssssss" />
      </g>
    </g>
  </g>
</svg>
