<?xml version="1.0" encoding="UTF-8" standalone="no"?>
<!-- Created with Inkscape (http://www.inkscape.org/) -->

<svg
   width="168"
   height="90"
   viewBox="0 0 44.45 23.812502"
   version="1.1"
   id="svg1"
   inkscape:version="1.4.2 (ebf0e940d0, 2025-05-08)"
   sodipodi:docname="juvalfri_datos.svg"
   xml:space="preserve"
   xmlns:inkscape="http://www.inkscape.org/namespaces/inkscape"
   xmlns:sodipodi="http://sodipodi.sourceforge.net/DTD/sodipodi-0.dtd"
   xmlns="http://www.w3.org/2000/svg"
   xmlns:svg="http://www.w3.org/2000/svg"><sodipodi:namedview
     id="namedview1"
     pagecolor="#ffffff"
     bordercolor="#000000"
     borderopacity="0.25"
     inkscape:showpageshadow="2"
     inkscape:pageopacity="0.0"
     inkscape:pagecheckerboard="0"
     inkscape:deskcolor="#d1d1d1"
     inkscape:document-units="px"
     inkscape:zoom="2.9291246"
     inkscape:cx="75.790562"
     inkscape:cy="87.398126"
     inkscape:window-width="1920"
     inkscape:window-height="1011"
     inkscape:window-x="0"
     inkscape:window-y="0"
     inkscape:window-maximized="1"
     inkscape:current-layer="layer1" /><defs
     id="defs1" /><g
     inkscape:label="Layer 1"
     inkscape:groupmode="layer"
     id="layer1"
     transform="translate(-73.759186,-62.231283)"><g
       id="g3"
       transform="translate(0,-0.14017092)"><path
         style="fill:#dc4270;fill-opacity:1;stroke-width:0.0411269"
         d="m 76.945465,71.962586 c -0.118231,-0.0366 -0.22414,-0.14738 -0.249099,-0.26054 -0.0084,-0.0379 -0.01097,-0.31722 -0.0086,-0.91948 l 0.0034,-0.86508 0.02593,-0.049 c 0.0391,-0.0738 0.08886,-0.1327 0.106454,-0.12595 0.0084,0.003 0.338337,0.21147 0.733144,0.46275 l 0.717831,0.45686 0.717792,-0.45689 c 0.394785,-0.25129 0.724653,-0.45952 0.73304,-0.46274 0.01766,-0.007 0.06829,0.0531 0.106596,0.12597 l 0.02573,0.049 0.003,0.87503 c 0.0034,0.98598 0.0063,0.94544 -0.07727,1.04822 -0.0327,0.0402 -0.06864,0.0685 -0.121026,0.0953 l -0.07451,0.0381 -1.296,0.002 c -1.09889,0.002 -1.303661,-3.6e-4 -1.346378,-0.0136 z m 2.558563,-0.9417 v -0.70838 l -0.03537,0.0214 c -0.01945,0.0117 -0.293589,0.18607 -0.609197,0.38737 -0.315607,0.20131 -0.578399,0.36601 -0.583982,0.36601 -0.01017,0 -0.342277,-0.20879 -0.905583,-0.56932 -0.165328,-0.10581 -0.303659,-0.19238 -0.307403,-0.19238 -0.0037,0 -0.0068,0.31583 -0.0068,0.70185 v 0.70186 h 1.224167 1.224168 z m -2.312317,-1.19166 c -0.05985,-0.0389 -0.140643,-0.0911 -0.179544,-0.11578 -0.0664,-0.0422 -0.06906,-0.0454 -0.04353,-0.0527 0.03438,-0.01 2.561971,-0.01 2.606117,-6e-5 l 0.03264,0.007 -0.06529,0.0422 c -0.03591,0.0232 -0.11772,0.0757 -0.181803,0.11664 l -0.116515,0.0744 -0.971635,-5.3e-4 -0.971634,-5.3e-4 z"
         id="path7" /><text
         xml:space="preserve"
         style="font-style:normal;font-variant:normal;font-weight:500;font-stretch:normal;font-size:2.11667px;line-height:1;font-family:'Exo 2';-inkscape-font-specification:'Exo 2 Medium';text-align:center;letter-spacing:0px;word-spacing:0.140229px;writing-mode:lr-tb;direction:ltr;text-anchor:middle;fill:#000000;fill-opacity:1;stroke:none;stroke-width:0.04;stroke-linecap:round"
         x="82.143478"
         y="71.361099"
         id="text14"><tspan
           sodipodi:role="line"
           id="tspan14"
           x="82.143478"
           y="71.361099"
           style="text-align:start;text-anchor:start;fill:#000000;fill-opacity:1;stroke-width:0.04">comercializadorajuvalfri@gmail.com</tspan></text></g><g
       id="g1"
       transform="translate(0,-0.52916669)"><path
         style="fill:#dc4270;fill-opacity:1;stroke-width:0.0135018"
         d="m 78.076434,83.996026 c -0.46792,-0.0203 -0.87076,-0.1 -1.11815,-0.22107 -0.0604,-0.0296 -0.0898,-0.0471 -0.13217,-0.0789 -0.0641,-0.048 -0.11107,-0.10688 -0.12921,-0.1619 -0.008,-0.0245 -0.01,-0.0355 -0.01,-0.0701 -2.3e-4,-0.0451 0.007,-0.0754 0.0264,-0.11418 0.0671,-0.13266 0.2666,-0.24475 0.57341,-0.3221 0.0726,-0.0183 0.21248,-0.0472 0.2152,-0.0445 0.002,0.002 0.0406,0.19583 0.0389,0.19749 -8.5e-4,8.5e-4 -0.0383,0.009 -0.0831,0.0191 -0.26993,0.0582 -0.4596,0.13482 -0.53836,0.2174 -0.0241,0.0253 -0.0362,0.0495 -0.0334,0.0668 0.01,0.0586 0.13339,0.13187 0.32493,0.19221 0.23794,0.075 0.56615,0.12355 0.90628,0.13414 0.44282,0.0138 0.8715,-0.0327 1.18893,-0.1289 0.18921,-0.0574 0.32989,-0.13215 0.35311,-0.18775 0.008,-0.0182 0.002,-0.0378 -0.0196,-0.0642 -0.0702,-0.0871 -0.27119,-0.1723 -0.53813,-0.22812 -0.0432,-0.009 -0.0822,-0.0172 -0.0866,-0.0181 -0.004,-9.2e-4 -0.008,-0.003 -0.008,-0.004 1e-5,-0.006 0.0387,-0.19429 0.0402,-0.19581 0.003,-0.003 0.14807,0.0266 0.22238,0.0452 0.33529,0.0839 0.52817,0.20276 0.58135,0.3582 0.0101,0.0295 0.0112,0.0369 0.0112,0.0756 1e-5,0.0369 -0.001,0.0469 -0.009,0.0714 -0.031,0.0931 -0.11439,0.17063 -0.26153,0.24293 -0.25008,0.12288 -0.64476,0.20017 -1.1215,0.21964 -0.10019,0.004 -0.29558,0.004 -0.39317,-2.9e-4 z m 0.19122,-0.4471 c -0.0886,-0.1422 -0.19656,-0.33082 -0.30825,-0.53853 -0.0256,-0.0477 -0.14665,-0.29081 -0.16447,-0.33045 -0.009,-0.0196 -0.0252,-0.0558 -0.0364,-0.0804 -0.15768,-0.34605 -0.25766,-0.66807 -0.2772,-0.89289 -0.006,-0.0677 -0.002,-0.18014 0.007,-0.23105 0.0479,-0.25601 0.21073,-0.47129 0.44155,-0.58381 0.27306,-0.13313 0.58919,-0.10282 0.83414,0.08 0.0411,0.0307 0.11373,0.10084 0.14398,0.13912 0.0367,0.0465 0.0694,0.0981 0.0955,0.15082 0.10766,0.21747 0.10861,0.4492 0.003,0.80199 -0.0374,0.12521 -0.0778,0.23621 -0.14568,0.40011 -0.11747,0.28356 -0.30724,0.65173 -0.51788,1.00472 -0.0325,0.0545 -0.0602,0.0991 -0.0616,0.0991 -0.001,0 -0.008,-0.008 -0.0141,-0.0188 z m 0.0946,-1.67972 c 0.12563,-0.042 0.20105,-0.16017 0.18473,-0.28938 -0.0112,-0.0886 -0.0655,-0.1653 -0.14536,-0.20528 -0.0444,-0.0222 -0.0671,-0.0271 -0.12332,-0.0267 -0.0417,3.5e-4 -0.0521,0.002 -0.0768,0.01 -0.11364,0.0372 -0.18755,0.13883 -0.18755,0.25797 0,0.12515 0.0864,0.23124 0.21256,0.26085 0.0346,0.008 0.10029,0.005 0.13574,-0.007 z"
         id="path6" /><text
         xml:space="preserve"
         style="font-style:normal;font-variant:normal;font-weight:500;font-stretch:normal;font-size:2.11667px;line-height:1;font-family:'Exo 2';-inkscape-font-specification:'Exo 2 Medium';text-align:center;letter-spacing:0px;word-spacing:0.140229px;writing-mode:lr-tb;direction:ltr;text-anchor:middle;fill:#000000;fill-opacity:1;stroke:none;stroke-width:0.04;stroke-linecap:round"
         x="82.122314"
         y="82.174934"
         id="text16"><tspan
           sodipodi:role="line"
           id="tspan16"
           x="82.122314"
           y="82.174934"
           style="text-align:start;text-anchor:start;fill:#000000;fill-opacity:1;stroke-width:0.04">Niza 19N, San Álvaro, Azcapotzalco,</tspan><tspan
           sodipodi:role="line"
           x="82.122314"
           y="84.291603"
           style="text-align:start;text-anchor:start;fill:#000000;fill-opacity:1;stroke-width:0.04"
           id="tspan17">02090 Ciudad de México, CDMX</tspan></text></g><g
       id="g4"><path
         style="fill:#dc4270;fill-opacity:1;stroke-width:0.0251433"
         d="m 76.686958,67.161316 c 0,-0.0047 0.04958,-0.189448 0.11019,-0.410711 l 0.110188,-0.402301 -0.03634,-0.07038 c -0.11364,-0.220117 -0.171431,-0.45902 -0.172316,-0.712343 -4.52e-4,-0.134362 0.0073,-0.214931 0.03206,-0.333324 0.128249,-0.612598 0.616964,-1.100931 1.226829,-1.225867 0.11783,-0.02414 0.192732,-0.03131 0.325972,-0.03122 0.428852,2.92e-4 0.811063,0.158981 1.114326,0.462655 0.306575,0.306991 0.463826,0.685738 0.464082,1.117779 7.6e-5,0.131032 -0.0062,0.199337 -0.02906,0.312668 -0.120716,0.600232 -0.583208,1.081546 -1.179743,1.22776 -0.132629,0.03249 -0.217866,0.04217 -0.372929,0.04226 -0.248908,1.5e-4 -0.460693,-0.0468 -0.674425,-0.149498 l -0.08236,-0.03957 -0.406604,0.106599 c -0.223631,0.05863 -0.411841,0.108243 -0.418244,0.110254 -0.0069,0.0022 -0.01163,1.99e-4 -0.01163,-0.0047 z m 1.734897,-0.298872 c 0.146598,-0.01593 0.28754,-0.05675 0.42716,-0.12373 0.41573,-0.199418 0.692414,-0.596344 0.738253,-1.059084 0.04287,-0.432747 -0.139338,-0.866356 -0.480599,-1.143723 -0.397221,-0.322845 -0.952176,-0.383674 -1.409751,-0.154524 -0.141687,0.07096 -0.253827,0.15428 -0.368051,0.273472 -0.4108,0.428667 -0.478587,1.0884 -0.163893,1.595097 l 0.0346,0.05572 -0.06596,0.240323 c -0.03628,0.132179 -0.06555,0.240804 -0.06506,0.241389 4.88e-4,6.97e-4 0.111674,-0.02821 0.247052,-0.06401 0.214157,-0.05662 0.247956,-0.06396 0.260102,-0.05646 0.161034,0.09945 0.349094,0.167146 0.53487,0.192544 0.07902,0.01081 0.22635,0.01224 0.311266,0.0032 z m 0.163569,-0.555052 c -0.1345,-0.02926 -0.349203,-0.122584 -0.470035,-0.20432 -0.265896,-0.179867 -0.553338,-0.535176 -0.620496,-0.767004 -0.02094,-0.0723 -0.02389,-0.180582 -0.0066,-0.246141 0.01727,-0.06578 0.05898,-0.142764 0.104015,-0.191904 0.05963,-0.06509 0.07915,-0.07342 0.168634,-0.07198 0.08574,0.0014 0.09538,0.0059 0.119049,0.05575 0.04153,0.08752 0.137539,0.330716 0.137539,0.348376 0,0.02121 -0.02672,0.06466 -0.08429,0.137091 -0.05166,0.06499 -0.05381,0.07166 -0.0347,0.108034 0.05087,0.09679 0.171785,0.23778 0.268605,0.313185 0.100681,0.07842 0.259948,0.162947 0.307003,0.162947 0.02779,0 0.03452,-0.0065 0.126774,-0.121375 0.03611,-0.04498 0.0691,-0.07975 0.0777,-0.08191 0.02036,-0.0051 0.07615,0.01715 0.23258,0.09282 0.178045,0.08612 0.170712,0.08016 0.170712,0.138772 0,0.0515 -0.01472,0.120921 -0.03358,0.158311 -0.01415,0.02806 -0.05804,0.07323 -0.09767,0.100492 -0.04334,0.02984 -0.12068,0.06449 -0.160708,0.07203 -0.04896,0.0092 -0.155047,0.0076 -0.204472,-0.0032 z"
         id="path14" /><text
         xml:space="preserve"
         style="font-style:normal;font-variant:normal;font-weight:500;font-stretch:normal;font-size:2.11667px;line-height:1;font-family:'Exo 2';-inkscape-font-specification:'Exo 2 Medium';text-align:center;letter-spacing:0px;word-spacing:0.140229px;writing-mode:lr-tb;direction:ltr;text-anchor:middle;fill:#000000;fill-opacity:1;stroke:none;stroke-width:0.04;stroke-linecap:round"
         x="82.147713"
         y="66.301323"
         id="text18"><tspan
           sodipodi:role="line"
           id="tspan18"
           x="82.147713"
           y="66.301323"
           style="text-align:start;text-anchor:start;fill:#000000;fill-opacity:1;stroke-width:0.04">55 4861 7332</tspan></text></g><g
       id="g2"
       transform="translate(0,0.02396475)"><text
         xml:space="preserve"
         style="font-style:normal;font-variant:normal;font-weight:500;font-stretch:normal;font-size:2.11667px;line-height:1;font-family:'Exo 2';-inkscape-font-specification:'Exo 2 Medium';text-align:center;letter-spacing:0px;word-spacing:0.140229px;writing-mode:lr-tb;direction:ltr;text-anchor:middle;fill:#000000;fill-opacity:1;stroke:none;stroke-width:0.04;stroke-linecap:round"
         x="82.092682"
         y="76.291763"
         id="text15"><tspan
           sodipodi:role="line"
           id="tspan15"
           x="82.092682"
           y="76.291763"
           style="text-align:start;text-anchor:start;fill:#000000;fill-opacity:1;stroke-width:0.04">https://juvalfri.com</tspan></text><path
         style="fill:#dc4270;fill-opacity:1;stroke-width:0.00585697"
         d="m 78.404672,76.334088 c -0.180292,-0.02191 -0.358314,-0.10522 -0.474805,-0.221933 -0.0596,-0.05967 -0.08156,-0.132185 -0.0615,-0.202903 0.0273,-0.09601 0.109824,-0.154623 0.207963,-0.147595 0.0508,0.0038 0.08131,0.01799 0.137985,0.06562 0.05729,0.04799 0.09193,0.06824 0.15013,0.08774 0.111379,0.03736 0.253158,0.01905 0.345805,-0.04502 0.03016,-0.02074 0.610027,-0.593154 0.659272,-0.650727 0.03532,-0.0413 0.06656,-0.101177 0.08129,-0.155914 0.01556,-0.05833 0.01429,-0.154982 -0.0032,-0.210841 -0.04035,-0.130704 -0.131333,-0.226653 -0.257793,-0.271801 -0.04686,-0.01693 -0.05613,-0.0182 -0.12954,-0.0182 -0.06717,-4.2e-5 -0.08523,0.0032 -0.120063,0.01376 -0.08591,0.02858 -0.104711,0.04326 -0.292861,0.229573 -0.185531,0.183685 -0.205026,0.199052 -0.267764,0.210969 -0.08284,0.01587 -0.175244,-0.03213 -0.21382,-0.110702 -0.01397,-0.02858 -0.01619,-0.04 -0.01619,-0.08575 0,-0.08697 0.0054,-0.09517 0.183245,-0.274045 0.154146,-0.155046 0.217614,-0.21281 0.279431,-0.254296 0.08003,-0.0537 0.186293,-0.09732 0.291766,-0.119804 0.08474,-0.01799 0.227854,-0.01799 0.312626,0 0.115348,0.02477 0.230934,0.0748 0.315389,0.137033 0.06461,0.0476 0.153955,0.141097 0.197484,0.206735 0.04488,0.06765 0.0719,0.124058 0.09723,0.203179 0.02984,0.09313 0.03781,0.155808 0.03445,0.270425 -0.0032,0.08674 -0.0054,0.10922 -0.02064,0.167556 -0.02889,0.110744 -0.0699,0.196828 -0.136636,0.287951 -0.02381,0.0323 -0.147987,0.160888 -0.367522,0.38009 -0.353393,0.35289 -0.372919,0.370035 -0.486076,0.426804 -0.13281,0.06661 -0.308435,0.09898 -0.446039,0.08217 z"
         id="path97" /><path
         style="fill:#dc4270;fill-opacity:1;stroke-width:0.00585697"
         d="m 77.406056,77.332202 c -0.112712,-0.01714 -0.192246,-0.04108 -0.275304,-0.08274 -0.231568,-0.116248 -0.384952,-0.322686 -0.434038,-0.584243 -0.01302,-0.06979 -0.01302,-0.19812 0,-0.27233 0.0254,-0.142706 0.0888,-0.276056 0.185198,-0.389488 0.02191,-0.02572 0.180371,-0.18669 0.352155,-0.357547 0.331961,-0.330243 0.355202,-0.350478 0.466676,-0.4064 0.262779,-0.131847 0.588391,-0.106553 0.828262,0.06432 0.133905,0.0954 0.178736,0.174583 0.154511,0.273071 -0.02445,0.09982 -0.105172,0.159089 -0.208042,0.15293 -0.05512,-0.0032 -0.08687,-0.01841 -0.14424,-0.06881 -0.04366,-0.03833 -0.124602,-0.08164 -0.174799,-0.09351 -0.05474,-0.01312 -0.11557,-0.01418 -0.168084,-0.0038 -0.06023,0.01206 -0.09617,0.02667 -0.146161,0.05944 -0.05071,0.03306 -0.655748,0.634852 -0.688102,0.684382 -0.06998,0.107188 -0.08542,0.24619 -0.04058,0.365422 0.04499,0.11957 0.159575,0.220429 0.283559,0.249534 0.0488,0.01143 0.138604,0.01143 0.187404,0 0.02096,-0.0049 0.06048,-0.01968 0.08785,-0.03296 0.04791,-0.02318 0.05658,-0.0308 0.228425,-0.200999 0.189929,-0.188108 0.208883,-0.203009 0.270383,-0.212301 0.09041,-0.01376 0.171498,0.02794 0.211122,0.108479 0.01714,0.03499 0.01937,0.04449 0.01937,0.08907 0,0.0834 -0.0063,0.0928 -0.183086,0.270912 -0.203771,0.205317 -0.256603,0.249132 -0.367474,0.304546 -0.112919,0.05652 -0.209629,0.08024 -0.339709,0.08342 -0.04832,0 -0.09574,0 -0.105394,0 z"
         id="path96" /></g></g></svg>
